<?xml version="1.0" encoding="UTF-8" standalone="no"?>
<svg
   width="1024"
   height="1024"
   version="1"
   id="svg20"
   sodipodi:docname="user-trash.svg"
   inkscape:version="1.2.2 (b0a8486541, 2022-12-01)"
   xmlns:inkscape="http://www.inkscape.org/namespaces/inkscape"
   xmlns:sodipodi="http://sodipodi.sourceforge.net/DTD/sodipodi-0.dtd"
   xmlns="http://www.w3.org/2000/svg"
   xmlns:svg="http://www.w3.org/2000/svg"
   xmlns:rdf="http://www.w3.org/1999/02/22-rdf-syntax-ns#"
   xmlns:cc="http://creativecommons.org/ns#"
   xmlns:dc="http://purl.org/dc/elements/1.1/">
  <metadata
     id="metadata26">
    <rdf:RDF>
      <cc:Work
         rdf:about="">
        <dc:format>image/svg+xml</dc:format>
        <dc:type
           rdf:resource="http://purl.org/dc/dcmitype/StillImage" />
      </cc:Work>
    </rdf:RDF>
  </metadata>
  <defs
     id="defs24" />
  <sodipodi:namedview
     pagecolor="#ffffff"
     bordercolor="#666666"
     borderopacity="1"
     objecttolerance="10"
     gridtolerance="10"
     guidetolerance="10"
     inkscape:pageopacity="0"
     inkscape:pageshadow="2"
     inkscape:window-width="1720"
     inkscape:window-height="1080"
     id="namedview22"
     showgrid="false"
     inkscape:zoom="0.30729166"
     inkscape:cx="1762.1695"
     inkscape:cy="831.45764"
     inkscape:window-x="0"
     inkscape:window-y="0"
     inkscape:window-maximized="0"
     inkscape:current-layer="svg20"
     inkscape:showpageshadow="2"
     inkscape:pagecheckerboard="0"
     inkscape:deskcolor="#d1d1d1" />
  <g
     id="g251"
     transform="matrix(2.65625,0,0,2.332317,-168,-97.512164)">
    <rect
       style="opacity:0.2;stroke-width:10.6667"
       width="320"
       height="373.33334"
       x="96"
       y="106.66666"
       rx="21.333334"
       ry="21.962667"
       id="rect2" />
    <rect
       style="fill:#8e8e8e;stroke-width:10.6667"
       width="320"
       height="373.33334"
       x="96"
       y="96"
       rx="21.333334"
       ry="21.962667"
       id="rect4" />
    <rect
       style="fill:#9f9f9f;stroke-width:10.6667"
       width="128"
       height="42.666668"
       x="192"
       y="42.666656"
       id="rect6" />
    <path
       style="opacity:0.3;fill:none;stroke:#000000;stroke-width:42.6667;stroke-linecap:round"
       d="m 170.6688,224 c 0,0 -0.002,42.66667 -0.002,85.33333 0,42.66667 0.002,85.33334 0.002,85.33334"
       id="path8"
       inkscape:connector-curvature="0" />
    <rect
       style="fill:#9f9f9f;stroke-width:10.6667"
       width="384"
       height="85.333336"
       x="64"
       y="64"
       rx="21.333334"
       ry="21.333334"
       id="rect10" />
    <path
       style="opacity:0.3;fill:none;stroke:#000000;stroke-width:42.6667;stroke-linecap:round"
       d="M 256,224 V 394.66667"
       id="path12"
       inkscape:connector-curvature="0" />
    <path
       style="opacity:0.2;fill:#ffffff;stroke-width:10.6667"
       d="M 85.333333,64 C 73.514667,64 64,73.51467 64,85.33333 V 96 C 64,84.18133 73.514667,74.66667 85.333333,74.66667 H 426.66667 C 438.48533,74.66667 448,84.18133 448,96 V 85.33333 C 448,73.51467 438.48533,64 426.66667,64 Z"
       id="path14"
       inkscape:connector-curvature="0" />
    <path
       style="opacity:0.2;stroke-width:10.6667"
       d="m 64,128 v 10.66667 C 64,150.48533 73.514667,160 85.333333,160 H 426.66667 C 438.48533,160 448,150.48533 448,138.66667 V 128 c 0,11.81867 -9.51467,21.33333 -21.33333,21.33333 H 85.333333 C 73.514667,149.33333 64,139.81867 64,128 Z"
       id="path16"
       inkscape:connector-curvature="0" />
    <path
       style="opacity:0.3;fill:none;stroke:#000000;stroke-width:42.6667;stroke-linecap:round"
       d="m 341.33547,224 c 0,0 -0.002,42.66667 -0.002,85.33333 0,42.66667 0.002,85.33334 0.002,85.33334"
       id="path18"
       inkscape:connector-curvature="0" />
  </g>
</svg>
