<?xml version="1.0" encoding="UTF-8" standalone="no"?>
<svg
   id="svg3695"
   height="1024"
   width="1024"
   version="1.0"
   sodipodi:docname="user-trash-full.svg"
   inkscape:version="1.2.2 (b0a8486541, 2022-12-01)"
   xml:space="preserve"
   xmlns:inkscape="http://www.inkscape.org/namespaces/inkscape"
   xmlns:sodipodi="http://sodipodi.sourceforge.net/DTD/sodipodi-0.dtd"
   xmlns:xlink="http://www.w3.org/1999/xlink"
   xmlns="http://www.w3.org/2000/svg"
   xmlns:svg="http://www.w3.org/2000/svg"
   xmlns:rdf="http://www.w3.org/1999/02/22-rdf-syntax-ns#"
   xmlns:cc="http://creativecommons.org/ns#"
   xmlns:dc="http://purl.org/dc/elements/1.1/"><sodipodi:namedview
     id="namedview75"
     pagecolor="#ffffff"
     bordercolor="#000000"
     borderopacity="0.25"
     inkscape:showpageshadow="2"
     inkscape:pageopacity="0.0"
     inkscape:pagecheckerboard="0"
     inkscape:deskcolor="#d1d1d1"
     showgrid="false"
     inkscape:zoom="0.2886432"
     inkscape:cx="-223.45928"
     inkscape:cy="122.98921"
     inkscape:window-width="1920"
     inkscape:window-height="1044"
     inkscape:window-x="1920"
     inkscape:window-y="0"
     inkscape:window-maximized="1"
     inkscape:current-layer="svg3695" /><metadata
     id="metadata11265"><rdf:RDF><cc:Work
         rdf:about=""><dc:format>image/svg+xml</dc:format><dc:type
           rdf:resource="http://purl.org/dc/dcmitype/StillImage" /></cc:Work></rdf:RDF></metadata><defs
     id="defs3697"><linearGradient
       id="linearGradient4335"><stop
         id="stop4337"
         offset="0"
         style="stop-color:#000000;stop-opacity:1;" /><stop
         id="stop4339"
         offset="1"
         style="stop-color:#000000;stop-opacity:0;" /></linearGradient><linearGradient
       id="linearGradient3892"><stop
         id="stop3894"
         offset="0"
         style="stop-color:#424242;stop-opacity:1;" /><stop
         id="stop3896"
         offset="1"
         style="stop-color:#dbdbdb;stop-opacity:1;" /></linearGradient><linearGradient
       id="linearGradient3835"><stop
         id="stop3837"
         offset="0"
         style="stop-color:#000000;stop-opacity:1;" /><stop
         id="stop3839"
         offset="1"
         style="stop-color:#000000;stop-opacity:0;" /></linearGradient><linearGradient
       id="linearGradient3825"><stop
         id="stop3827"
         offset="0"
         style="stop-color:#000000;stop-opacity:1;" /><stop
         id="stop3829"
         offset="1"
         style="stop-color:#000000;stop-opacity:0;" /></linearGradient><linearGradient
       id="linearGradient3815"><stop
         id="stop3817"
         offset="0"
         style="stop-color:#000000;stop-opacity:1;" /><stop
         id="stop3819"
         offset="1"
         style="stop-color:#000000;stop-opacity:0;" /></linearGradient><linearGradient
       id="linearGradient2793-2-0-403"><stop
         offset="0"
         style="stop-color:#8d909a;stop-opacity:1"
         id="stop4645" /><stop
         offset="1"
         style="stop-color:#d9d9d9;stop-opacity:1"
         id="stop4647" /></linearGradient><linearGradient
       id="linearGradient3254-8-457"><stop
         offset="0"
         style="stop-color:#ffffff;stop-opacity:1"
         id="stop4669" /><stop
         offset="1"
         style="stop-color:#ffffff;stop-opacity:0"
         id="stop4671" /></linearGradient><linearGradient
       id="linearGradient3254-3-182"><stop
         offset="0"
         style="stop-color:#ffffff;stop-opacity:1"
         id="stop4663" /><stop
         offset="1"
         style="stop-color:#ffffff;stop-opacity:0"
         id="stop4665" /></linearGradient><linearGradient
       id="linearGradient3205"><stop
         offset="0"
         style="stop-color:#000000;stop-opacity:1"
         id="stop3207" /><stop
         offset="1"
         style="stop-color:#000000;stop-opacity:0"
         id="stop3209" /></linearGradient><linearGradient
       y2="45"
       x2="24"
       y1="15.502284"
       x1="24"
       gradientTransform="matrix(2.409451,0.11081661,0,2.4064072,12.47514,4.4221265)"
       gradientUnits="userSpaceOnUse"
       id="linearGradient3032"
       xlink:href="#linearGradient3205" /><linearGradient
       y2="43"
       x2="24"
       y1="13.506023"
       x1="24"
       gradientTransform="matrix(2.409451,0.8865329,0,2.4064072,7.069107,-3.2743266)"
       gradientUnits="userSpaceOnUse"
       id="linearGradient3035"
       xlink:href="#linearGradient3205" /><linearGradient
       y2="34.173542"
       x2="17.125"
       y1="20.230709"
       x1="12.25"
       gradientTransform="matrix(2.1600758,0,0,3.2093088,18.454202,-9.375455)"
       gradientUnits="userSpaceOnUse"
       id="linearGradient3038"
       xlink:href="#linearGradient3254-3-182" /><radialGradient
       r="14.500172"
       fy="21.029308"
       fx="19.308081"
       cy="21.029308"
       cx="19.308081"
       spreadMethod="pad"
       gradientTransform="matrix(0,4.0410387,-3.9961547,0,124.28486,-35.815262)"
       gradientUnits="userSpaceOnUse"
       id="radialGradient3052"
       xlink:href="#linearGradient3254-8-457" /><linearGradient
       y2="26.410894"
       x2="21.514704"
       y1="26.410894"
       x1="11.93083"
       spreadMethod="reflect"
       gradientTransform="matrix(2.9503439,0,0,3.4716222,1.4755034,-19.306013)"
       gradientUnits="userSpaceOnUse"
       id="linearGradient3055"
       xlink:href="#linearGradient2793-2-0-403" /><linearGradient
       y2="45"
       x2="24"
       y1="15.502284"
       x1="24"
       gradientTransform="matrix(2.409451,0.11081661,0,2.4064072,1.724009,4.4221265)"
       gradientUnits="userSpaceOnUse"
       id="linearGradient5339"
       xlink:href="#linearGradient3205" /><linearGradient
       y2="39.850574"
       x2="23.5"
       y1="10.996204"
       x1="23.5"
       gradientTransform="matrix(3.0600929,0,0,4.6826228,-6.9822609,-66.778217)"
       gradientUnits="userSpaceOnUse"
       id="linearGradient5341"
       xlink:href="#linearGradient3254-8-457" /><linearGradient
       gradientTransform="matrix(1.7918552,0,0,1.7946846,5.7647069,8.4240011)"
       gradientUnits="userSpaceOnUse"
       y2="46.218822"
       x2="34.439655"
       y1="18.596245"
       x1="34.439655"
       id="linearGradient3821"
       xlink:href="#linearGradient3815" /><linearGradient
       gradientTransform="matrix(1.7918552,0,0,1.7946846,5.7647069,6.4240011)"
       gradientUnits="userSpaceOnUse"
       y2="42.529957"
       x2="35.094646"
       y1="19.210447"
       x1="35.094646"
       id="linearGradient3831"
       xlink:href="#linearGradient3825" /><linearGradient
       gradientTransform="matrix(1.7918552,0,0,1.7946846,5.7647069,6.4240011)"
       gradientUnits="userSpaceOnUse"
       y2="40.715191"
       x2="41.25"
       y1="19.833317"
       x1="41.25"
       id="linearGradient3841"
       xlink:href="#linearGradient3835" /><linearGradient
       y2="28.903023"
       x2="32.180862"
       y1="13.828948"
       x1="32.180862"
       gradientTransform="matrix(3.8050192,0,0,-1.7722014,-53.234515,57.72569)"
       gradientUnits="userSpaceOnUse"
       id="linearGradient3083"
       xlink:href="#linearGradient4404-5-5-1" /><linearGradient
       id="linearGradient4404-5-5-1"><stop
         offset="0"
         style="stop-color:#ffffff;stop-opacity:1"
         id="stop4406-9-1-0" /><stop
         offset="0.09090912"
         style="stop-color:#ffffff;stop-opacity:0.23529412"
         id="stop4408-7-4-4" /><stop
         offset="0.81818187"
         style="stop-color:#ffffff;stop-opacity:0.15686275"
         id="stop4410-6-4-0" /><stop
         offset="1"
         style="stop-color:#ffffff;stop-opacity:0.39215687"
         id="stop4412-1-5-5" /></linearGradient><linearGradient
       id="linearGradient4238-0"><stop
         id="stop4240-2"
         style="stop-color:#8d909a;stop-opacity:1"
         offset="0" /><stop
         id="stop4242-27"
         style="stop-color:#e5e5e5;stop-opacity:1"
         offset="1" /></linearGradient><linearGradient
       xlink:href="#linearGradient4238-0"
       id="linearGradient3076"
       gradientUnits="userSpaceOnUse"
       gradientTransform="matrix(2.8069275,0,0,2.5334137,3.6510674,-4.5503239)"
       spreadMethod="reflect"
       x1="34.613369"
       y1="26.410894"
       x2="19.314434"
       y2="26.410894" /><radialGradient
       gradientUnits="userSpaceOnUse"
       gradientTransform="matrix(1.7918552,0,0,1.1964565,6.7647069,11.913664)"
       r="7.5"
       fy="13.583334"
       fx="32"
       cy="13.583334"
       cx="32"
       id="radialGradient3910"
       xlink:href="#linearGradient3892" /><radialGradient
       gradientUnits="userSpaceOnUse"
       gradientTransform="matrix(5.8382614,-3.1558157,-1.0571426,-2.2857142,-85.526775,119.82082)"
       r="7"
       fy="3.1290605"
       fx="25.719536"
       cy="3.1290605"
       cx="25.719536"
       id="radialGradient3922"
       xlink:href="#linearGradient4238-0" /><radialGradient
       gradientUnits="userSpaceOnUse"
       gradientTransform="matrix(1,0,0,0.33952703,0,73.638619)"
       r="37"
       fy="105.4375"
       fx="64"
       cy="105.4375"
       cx="64"
       id="radialGradient4341"
       xlink:href="#linearGradient4335" /><linearGradient
       y2="45"
       x2="24"
       y1="15.502284"
       x1="24"
       gradientTransform="matrix(2.409451,0.11081661,0,2.4064072,12.47514,4.4221265)"
       gradientUnits="userSpaceOnUse"
       id="linearGradient3032-8"
       xlink:href="#linearGradient4335" /><linearGradient
       y2="43"
       x2="24"
       y1="13.506023"
       x1="24"
       gradientTransform="matrix(2.409451,0.8865329,0,2.4064072,7.069107,-3.2743266)"
       gradientUnits="userSpaceOnUse"
       id="linearGradient3035-7"
       xlink:href="#linearGradient4335" /><linearGradient
       y2="34.173542"
       x2="17.125"
       y1="20.230709"
       x1="12.25"
       gradientTransform="matrix(2.1600758,0,0,3.2093088,18.454202,-9.375455)"
       gradientUnits="userSpaceOnUse"
       id="linearGradient3038-9"
       xlink:href="#linearGradient3254-8-457" /><radialGradient
       r="14.500172"
       fy="21.029308"
       fx="19.308081"
       cy="21.029308"
       cx="19.308081"
       spreadMethod="pad"
       gradientTransform="matrix(0,4.0410387,-3.9961547,0,124.28486,-35.815262)"
       gradientUnits="userSpaceOnUse"
       id="radialGradient3052-2"
       xlink:href="#linearGradient3254-8-457" /><linearGradient
       y2="26.410894"
       x2="21.514704"
       y1="26.410894"
       x1="11.93083"
       spreadMethod="reflect"
       gradientTransform="matrix(2.9503439,0,0,3.4716222,1.4755034,-19.306013)"
       gradientUnits="userSpaceOnUse"
       id="linearGradient3055-0"
       xlink:href="#linearGradient2793-2-0-403" /><linearGradient
       y2="45"
       x2="24"
       y1="15.502284"
       x1="24"
       gradientTransform="matrix(2.409451,0.11081661,0,2.4064072,1.724009,4.4221265)"
       gradientUnits="userSpaceOnUse"
       id="linearGradient5339-2"
       xlink:href="#linearGradient4335" /><linearGradient
       y2="39.850574"
       x2="23.5"
       y1="10.996204"
       x1="23.5"
       gradientTransform="matrix(3.0600929,0,0,4.6826228,-6.9822609,-66.778217)"
       gradientUnits="userSpaceOnUse"
       id="linearGradient5341-3"
       xlink:href="#linearGradient3254-8-457" /><linearGradient
       gradientTransform="matrix(1.7918552,0,0,1.7946846,5.7647069,8.4240011)"
       gradientUnits="userSpaceOnUse"
       y2="46.218822"
       x2="34.439655"
       y1="18.596245"
       x1="34.439655"
       id="linearGradient3821-7"
       xlink:href="#linearGradient4335" /><linearGradient
       gradientTransform="matrix(1.7918552,0,0,1.7946846,5.7647069,6.4240011)"
       gradientUnits="userSpaceOnUse"
       y2="42.529957"
       x2="35.094646"
       y1="19.210447"
       x1="35.094646"
       id="linearGradient3831-5"
       xlink:href="#linearGradient4335" /><linearGradient
       gradientTransform="matrix(1.7918552,0,0,1.7946846,5.7647069,6.4240011)"
       gradientUnits="userSpaceOnUse"
       y2="40.715191"
       x2="41.25"
       y1="19.833317"
       x1="41.25"
       id="linearGradient3841-9"
       xlink:href="#linearGradient4335" /><linearGradient
       y2="28.903023"
       x2="32.180862"
       y1="13.828948"
       x1="32.180862"
       gradientTransform="matrix(3.8050192,0,0,-1.7722014,-53.234515,57.72569)"
       gradientUnits="userSpaceOnUse"
       id="linearGradient3083-2"
       xlink:href="#linearGradient4404-5-5-1" /><linearGradient
       xlink:href="#linearGradient4238-0"
       id="linearGradient3076-1"
       gradientUnits="userSpaceOnUse"
       gradientTransform="matrix(2.8069275,0,0,2.5334137,3.6510674,-4.5503239)"
       spreadMethod="reflect"
       x1="34.613369"
       y1="26.410894"
       x2="19.314434"
       y2="26.410894" /><radialGradient
       gradientUnits="userSpaceOnUse"
       gradientTransform="matrix(1.7918552,0,0,1.1964565,6.7647069,11.913664)"
       r="7.5"
       fy="13.583334"
       fx="32"
       cy="13.583334"
       cx="32"
       id="radialGradient3910-2"
       xlink:href="#linearGradient3892" /><radialGradient
       gradientUnits="userSpaceOnUse"
       gradientTransform="matrix(5.8382614,-3.1558157,-1.0571426,-2.2857142,-85.526775,119.82082)"
       r="7"
       fy="3.1290605"
       fx="25.719536"
       cy="3.1290605"
       cx="25.719536"
       id="radialGradient3922-9"
       xlink:href="#linearGradient4238-0" /><radialGradient
       gradientUnits="userSpaceOnUse"
       gradientTransform="matrix(1,0,0,0.33952703,0,73.638619)"
       r="37"
       fy="105.4375"
       fx="64"
       cy="105.4375"
       cx="64"
       id="radialGradient4341-3"
       xlink:href="#linearGradient4335" /><radialGradient
       cx="62.71241"
       cy="108.02493"
       r="47.38271"
       fx="62.71241"
       fy="108.02493"
       id="radialGradient3269"
       xlink:href="#linearGradient4335"
       gradientUnits="userSpaceOnUse"
       gradientTransform="matrix(0.3587806,0,0,0.2110472,1.5000008,15.20272)" /><linearGradient
       id="linearGradient3384"><stop
         id="stop3386"
         style="stop-color:#6e6e6e;stop-opacity:1"
         offset="0" /><stop
         id="stop3388"
         style="stop-color:#9f9fa1;stop-opacity:1"
         offset="1" /></linearGradient><linearGradient
       x1="31.048019"
       y1="45"
       x2="31.048019"
       y2="5.5"
       id="linearGradient3266"
       xlink:href="#linearGradient3384"
       gradientUnits="userSpaceOnUse"
       gradientTransform="translate(0,2)" /><linearGradient
       x1="11.93083"
       y1="26.410894"
       x2="21.514704"
       y2="26.410894"
       id="linearGradient3264"
       xlink:href="#linearGradient2793-2-0-403"
       gradientUnits="userSpaceOnUse"
       gradientTransform="matrix(1.2083478,0,0,1.5198788,-1.979478,-15.055094)"
       spreadMethod="reflect" /><radialGradient
       cx="19.308081"
       cy="21.029308"
       r="14.500172"
       fx="19.308081"
       fy="21.029308"
       id="radialGradient3258"
       xlink:href="#linearGradient3254-8-457"
       gradientUnits="userSpaceOnUse"
       gradientTransform="matrix(0,1.679283,-1.6454754,0,48.823182,-18.496093)"
       spreadMethod="pad" /><linearGradient
       id="linearGradient3355-273"><stop
         id="stop4657"
         style="stop-color:#f0f0f0;stop-opacity:1"
         offset="0" /><stop
         id="stop3619"
         style="stop-color:#777779;stop-opacity:1"
         offset="0.44955608" /><stop
         id="stop4659"
         style="stop-color:#6c6c70;stop-opacity:1"
         offset="1" /></linearGradient><linearGradient
       x1="23.999979"
       y1="9.3726854"
       x2="23.999979"
       y2="2.0968478"
       id="linearGradient3255"
       xlink:href="#linearGradient3355-273"
       gradientUnits="userSpaceOnUse"
       gradientTransform="matrix(1.1598658,0,0,1.3742464,-3.8367541,-0.9326014)" /><linearGradient
       id="linearGradient3320"><stop
         id="stop3323"
         style="stop-color:#4e4e4e;stop-opacity:1"
         offset="0" /><stop
         id="stop3325"
         style="stop-color:#b9bac2;stop-opacity:1"
         offset="1" /></linearGradient><linearGradient
       x1="9.0003471"
       y1="8"
       x2="24"
       y2="8"
       id="linearGradient3253"
       xlink:href="#linearGradient3320"
       gradientUnits="userSpaceOnUse"
       spreadMethod="reflect" /><linearGradient
       id="linearGradient3627"><stop
         id="stop3629"
         style="stop-color:#000000;stop-opacity:0"
         offset="0" /><stop
         id="stop3190"
         style="stop-color:#000000;stop-opacity:0"
         offset="0.5" /><stop
         id="stop3631"
         style="stop-color:#000000;stop-opacity:1"
         offset="1" /></linearGradient><radialGradient
       cx="24"
       cy="7.7919979"
       r="14.507708"
       fx="24"
       fy="7.7919979"
       id="radialGradient3250"
       xlink:href="#linearGradient3627"
       gradientUnits="userSpaceOnUse"
       gradientTransform="matrix(-3.2042761e-8,0.6892888,-3.1574826,0,48.603098,-13.542931)"
       spreadMethod="pad" /><linearGradient
       x1="23.5"
       y1="10.996204"
       x2="23.5"
       y2="39.850574"
       id="linearGradient3247"
       xlink:href="#linearGradient3254-8-457"
       gradientUnits="userSpaceOnUse"
       gradientTransform="matrix(1.2227969,0,0,1.9458981,-4.735753,-31.362975)" /><linearGradient
       x1="12.25"
       y1="20.230709"
       x2="17.125"
       y2="34.173542"
       id="linearGradient3261"
       xlink:href="#linearGradient3254-8-457"
       gradientUnits="userSpaceOnUse"
       gradientTransform="matrix(0.8965013,0,0,1.365896,4.7251825,-8.808688)" /><linearGradient
       x1="24"
       y1="13.506023"
       x2="24"
       y2="43"
       id="linearGradient3389"
       xlink:href="#linearGradient4335"
       gradientUnits="userSpaceOnUse"
       gradientTransform="matrix(1,0.3684052,0,1,0,-4.9734702)" /><linearGradient
       x1="24"
       y1="15.502284"
       x2="24"
       y2="45"
       id="linearGradient3373"
       xlink:href="#linearGradient4335"
       gradientUnits="userSpaceOnUse"
       gradientTransform="matrix(1,0.04605065,0,1,0,-0.9440383)" /><linearGradient
       xlink:href="#linearGradient4335"
       id="linearGradient3032-86"
       gradientUnits="userSpaceOnUse"
       gradientTransform="matrix(1.3446684,0.06174712,0,1.3408524,2.7449638,-1.1154458)"
       x1="24"
       y1="15.502284"
       x2="24"
       y2="45" /><linearGradient
       xlink:href="#linearGradient4335"
       id="linearGradient3035-8"
       gradientUnits="userSpaceOnUse"
       gradientTransform="matrix(1.3446684,0.49397698,0,1.3408524,-0.27203914,-6.5183192)"
       x1="24"
       y1="13.506023"
       x2="24"
       y2="43" /><linearGradient
       xlink:href="#linearGradient3254-8-457"
       id="linearGradient3038-8"
       gradientUnits="userSpaceOnUse"
       gradientTransform="matrix(1.2054969,0,0,1.7882299,6.081764,-9.9178739)"
       x1="12.25"
       y1="20.230709"
       x2="17.125"
       y2="34.173542" /><linearGradient
       xlink:href="#linearGradient3254-8-457"
       id="linearGradient3041"
       gradientUnits="userSpaceOnUse"
       gradientTransform="matrix(1.6442563,0,0,2.6091619,-6.6400562,-41.902748)"
       x1="23.5"
       y1="10.996204"
       x2="23.5"
       y2="39.850574" /><radialGradient
       xlink:href="#linearGradient3254-8-457"
       id="radialGradient3052-4"
       gradientUnits="userSpaceOnUse"
       gradientTransform="matrix(0,2.2516706,-2.2126187,0,65.378947,-24.65016)"
       spreadMethod="pad"
       cx="19.308081"
       cy="21.029308"
       fx="19.308081"
       fy="21.029308"
       r="14.500172" /><linearGradient
       xlink:href="#linearGradient2793-2-0-403"
       id="linearGradient3055-3"
       gradientUnits="userSpaceOnUse"
       gradientTransform="matrix(1.624827,0,0,1.9343912,-2.9337804,-15.842847)"
       spreadMethod="reflect"
       x1="11.93083"
       y1="26.410894"
       x2="21.514704"
       y2="26.410894" /><linearGradient
       xlink:href="#linearGradient3384"
       id="linearGradient3057"
       gradientUnits="userSpaceOnUse"
       gradientTransform="matrix(1.3446683,0,0,1.2727273,-0.27203904,5.8636367)"
       x1="31.048019"
       y1="45"
       x2="31.048019"
       y2="5.5" /><radialGradient
       xlink:href="#linearGradient4335"
       id="radialGradient3060"
       gradientUnits="userSpaceOnUse"
       gradientTransform="matrix(0.45375193,0,0,0.19589447,3.0441192,32.839593)"
       cx="62.71241"
       cy="108.02493"
       fx="62.71241"
       fy="108.02493"
       r="47.38271" /><linearGradient
       xlink:href="#linearGradient4335"
       id="linearGradient5339-1"
       gradientUnits="userSpaceOnUse"
       gradientTransform="matrix(1.3446684,0.06174712,0,1.3408524,-3.2550362,-1.1154458)"
       x1="24"
       y1="15.502284"
       x2="24"
       y2="45" /><linearGradient
       xlink:href="#linearGradient3254-8-457"
       id="linearGradient5341-4"
       gradientUnits="userSpaceOnUse"
       gradientTransform="matrix(1.6442563,0,0,2.6091619,-5.6400561,-41.902748)"
       x1="23.5"
       y1="10.996204"
       x2="23.5"
       y2="39.850574" /><linearGradient
       xlink:href="#linearGradient4335"
       id="linearGradient3821-9"
       x1="34.439655"
       y1="18.596245"
       x2="34.439655"
       y2="46.218822"
       gradientUnits="userSpaceOnUse"
       gradientTransform="translate(-0.99999987)" /><linearGradient
       xlink:href="#linearGradient4335"
       id="linearGradient3831-2"
       x1="35.094646"
       y1="19.210447"
       x2="35.094646"
       y2="42.529957"
       gradientUnits="userSpaceOnUse"
       gradientTransform="translate(-0.99999987)" /><linearGradient
       xlink:href="#linearGradient4335"
       id="linearGradient3841-0"
       x1="41.25"
       y1="19.833317"
       x2="41.25"
       y2="40.715191"
       gradientUnits="userSpaceOnUse"
       gradientTransform="translate(-0.99999987)" /><linearGradient
       xlink:href="#linearGradient4238-0"
       id="linearGradient3081"
       gradientUnits="userSpaceOnUse"
       gradientTransform="matrix(0.45754817,0,0,0.47298439,-1.837284,-3.6558699)"
       spreadMethod="reflect"
       x1="34.613369"
       y1="26.410894"
       x2="19.314434"
       y2="26.410894" /><radialGradient
       xlink:href="#linearGradient3892"
       id="radialGradient3898"
       cx="32"
       cy="16"
       fx="32"
       fy="16"
       r="7"
       gradientTransform="matrix(1,0,0,1.1428571,-22,-25.285714)"
       gradientUnits="userSpaceOnUse" /><linearGradient
       xlink:href="#linearGradient4404-5-5-1"
       id="linearGradient3092"
       gradientUnits="userSpaceOnUse"
       gradientTransform="matrix(0.72972969,0,0,0.72972969,3.516668,-7.0913942)"
       x1="32.180862"
       y1="13.828948"
       x2="32.180862"
       y2="28.903023" /><radialGradient
       xlink:href="#linearGradient4238-0"
       id="radialGradient3094"
       gradientUnits="userSpaceOnUse"
       gradientTransform="matrix(1.104536,1.2272618,-0.19999996,0.88888892,-2.3073407,-30.84599)"
       cx="25.719536"
       cy="3.1290605"
       fx="25.719536"
       fy="3.1290605"
       r="7" /><radialGradient
       xlink:href="#linearGradient3892"
       id="radialGradient3096"
       gradientUnits="userSpaceOnUse"
       gradientTransform="matrix(1,0,0,0.66666671,0,1.9444437)"
       cx="32"
       cy="13.583334"
       fx="32"
       fy="13.583334"
       r="7.5" /><linearGradient
       xlink:href="#linearGradient3320"
       id="linearGradient3047"
       gradientUnits="userSpaceOnUse"
       spreadMethod="reflect"
       x1="9.0003471"
       y1="8"
       x2="24"
       y2="8"
       gradientTransform="matrix(1.3446683,0,0,1.3408523,0.7279608,-9.8496309)" /><linearGradient
       xlink:href="#linearGradient3355-273"
       id="linearGradient3049"
       gradientUnits="userSpaceOnUse"
       gradientTransform="matrix(1.5596348,0,0,1.8426614,-4.431201,-11.100111)"
       x1="23.999979"
       y1="9.3726854"
       x2="23.999979"
       y2="2.0968478" /><linearGradient
       y2="8"
       x2="24"
       y1="8"
       x1="9.0003471"
       spreadMethod="reflect"
       gradientTransform="matrix(1.3449532,0,0,1.0907761,-0.27474467,4.7737908)"
       gradientUnits="userSpaceOnUse"
       id="linearGradient3410"
       xlink:href="#linearGradient3320" /><linearGradient
       y2="2.0968478"
       x2="23.999979"
       y1="9.3726854"
       x1="23.999979"
       gradientTransform="matrix(1.5599653,0,0,1.4989952,-5.4349999,3.7565321)"
       gradientUnits="userSpaceOnUse"
       id="linearGradient3412"
       xlink:href="#linearGradient3355-273" /><radialGradient
       xlink:href="#linearGradient3627"
       id="radialGradient3044"
       gradientUnits="userSpaceOnUse"
       gradientTransform="matrix(0,0.78569918,-4.2457668,1.6471244e-7,66.083006,-18.683855)"
       spreadMethod="pad"
       cx="23.816956"
       cy="7.8258715"
       fx="23.816956"
       fy="7.8258715"
       r="14.507708" /><radialGradient
       r="14.507708"
       fy="7.8258715"
       fx="23.816956"
       cy="7.8258715"
       cx="23.816956"
       spreadMethod="pad"
       gradientTransform="matrix(0,0.63772679,-4.1723877,1.336918e-7,64.011232,-7.3054444)"
       gradientUnits="userSpaceOnUse"
       id="radialGradient3430"
       xlink:href="#linearGradient3627" /><linearGradient
       xlink:href="#linearGradient4017-8"
       id="linearGradient3038-0"
       gradientUnits="userSpaceOnUse"
       gradientTransform="matrix(0.80855176,0,0,0.62481041,55.121458,10.490577)"
       x1="20.153708"
       y1="3.0216999"
       x2="20.153708"
       y2="26.666777" /><linearGradient
       id="linearGradient4017-8"><stop
         id="stop4019-8"
         style="stop-color:#ffffff;stop-opacity:1"
         offset="0" /><stop
         id="stop4021-9"
         style="stop-color:#ffffff;stop-opacity:0.23529412"
         offset="0.49550432" /><stop
         id="stop4023-0"
         style="stop-color:#ffffff;stop-opacity:0.15686275"
         offset="0.88038814" /><stop
         id="stop4025-2"
         style="stop-color:#ffffff;stop-opacity:0.39215687"
         offset="1" /></linearGradient><linearGradient
       xlink:href="#linearGradient3355-273"
       id="linearGradient3388"
       gradientUnits="userSpaceOnUse"
       gradientTransform="matrix(1.5596348,0,0,1.8426614,1.568799,-11.100111)"
       x1="23.999979"
       y1="9.3726854"
       x2="23.999979"
       y2="2.0968478" /><linearGradient
       y2="2.0968478"
       x2="23.999979"
       y1="9.3726854"
       x1="23.999979"
       gradientTransform="matrix(1.5599653,0,0,1.4989951,-5.4349983,3.7565319)"
       gradientUnits="userSpaceOnUse"
       id="linearGradient3448"
       xlink:href="#linearGradient3355-273" /><linearGradient
       inkscape:collect="always"
       xlink:href="#linearGradient4017-8"
       id="linearGradient986"
       gradientUnits="userSpaceOnUse"
       gradientTransform="matrix(0.80855176,0,0,0.62481041,55.121458,10.490577)"
       x1="20.153708"
       y1="3.0216999"
       x2="20.153708"
       y2="26.666777" /><linearGradient
       inkscape:collect="always"
       xlink:href="#linearGradient4017-8"
       id="linearGradient988"
       gradientUnits="userSpaceOnUse"
       gradientTransform="matrix(0.80855176,0,0,0.62481041,55.121458,10.490577)"
       x1="20.153708"
       y1="3.0216999"
       x2="20.153708"
       y2="26.666777" /><linearGradient
       inkscape:collect="always"
       xlink:href="#linearGradient4017-8"
       id="linearGradient990"
       gradientUnits="userSpaceOnUse"
       gradientTransform="matrix(0.80855176,0,0,0.62481041,55.121458,10.490577)"
       x1="20.153708"
       y1="3.0216999"
       x2="20.153708"
       y2="26.666777" /><linearGradient
       gradientTransform="matrix(2.6658408,0,0,2.7170994,-143.33283,-5.198823)"
       gradientUnits="userSpaceOnUse"
       xlink:href="#linearGradient8272"
       id="linearGradient5891"
       y2="44.237919"
       x2="97.538795"
       y1="17.002993"
       x1="97.538795" /><linearGradient
       id="linearGradient8272"><stop
         offset="0"
         style="stop-color:#ffffff;stop-opacity:1"
         id="stop8274" /><stop
         offset="0.0221225"
         style="stop-color:#ffffff;stop-opacity:0.23529412"
         id="stop8276" /><stop
         offset="0.97909725"
         style="stop-color:#ffffff;stop-opacity:0.15686275"
         id="stop8278" /><stop
         offset="1"
         style="stop-color:#ffffff;stop-opacity:0.39215687"
         id="stop8280" /></linearGradient><linearGradient
       gradientTransform="matrix(0.21400397,0,0,0.06588235,-13.347139,81.844376)"
       gradientUnits="userSpaceOnUse"
       xlink:href="#linearGradient5048-585"
       id="linearGradient5875"
       y2="609.50507"
       x2="302.85715"
       y1="366.64789"
       x1="302.85715" /><linearGradient
       id="linearGradient5048-585"><stop
         offset="0"
         style="stop-color:#000000;stop-opacity:0"
         id="stop2667" /><stop
         offset="0.5"
         style="stop-color:#000000;stop-opacity:1"
         id="stop2669" /><stop
         offset="1"
         style="stop-color:#000000;stop-opacity:0"
         id="stop2671" /></linearGradient><radialGradient
       gradientTransform="matrix(0.08300137,0,0,0.06588235,65.645022,81.844376)"
       gradientUnits="userSpaceOnUse"
       xlink:href="#linearGradient4335"
       id="radialGradient5877"
       fy="486.64789"
       fx="605.71429"
       r="117.14286"
       cy="486.64789"
       cx="605.71429" /><radialGradient
       gradientTransform="matrix(-0.08300135,0,0,0.06588235,62.354968,81.844376)"
       gradientUnits="userSpaceOnUse"
       xlink:href="#linearGradient4335"
       id="radialGradient5879"
       fy="486.64789"
       fx="605.71429"
       r="117.14286"
       cy="486.64789"
       cx="605.71429" /><linearGradient
       gradientTransform="matrix(2.6658408,0,0,2.6469079,-143.33283,-2.049513)"
       gradientUnits="userSpaceOnUse"
       xlink:href="#linearGradient9235"
       id="linearGradient5873"
       y2="44.260689"
       x2="97.538795"
       y1="12.108284"
       x1="97.538795" /><linearGradient
       id="linearGradient9235"><stop
         offset="0"
         style="stop-color:#ffffff;stop-opacity:1"
         id="stop9237" /><stop
         offset="0.02350054"
         style="stop-color:#ffffff;stop-opacity:0.23529412"
         id="stop9239" /><stop
         offset="0.97909725"
         style="stop-color:#ffffff;stop-opacity:0.15686275"
         id="stop9241" /><stop
         offset="1"
         style="stop-color:#ffffff;stop-opacity:0.39215687"
         id="stop9243" /></linearGradient><linearGradient
       id="linearGradient6404-7-5"><stop
         offset="0"
         style="stop-color:#f9f9f9;stop-opacity:1"
         id="stop6406-1-8" /><stop
         offset="1"
         style="stop-color:#c9c9c9;stop-opacity:1"
         id="stop6408-9-6" /></linearGradient><linearGradient
       gradientTransform="matrix(2.7209303,0,0,2.6722576,-117.2202,-2.213873)"
       gradientUnits="userSpaceOnUse"
       xlink:href="#linearGradient6404-7-5"
       id="linearGradient26390"
       y2="16.997795"
       x2="62.988873"
       y1="14.090554"
       x1="62.988873" /><linearGradient
       id="linearGradient4632-0-6-4-4-4"><stop
         offset="0"
         style="stop-color:#efdfc4;stop-opacity:1"
         id="stop4634-4-4-7-4" /><stop
         offset="1"
         style="stop-color:#e7c591;stop-opacity:1"
         id="stop4636-3-1-5-9" /></linearGradient><linearGradient
       y2="138.45531"
       x2="48.622746"
       y1="-19.357914"
       x1="48.622746"
       gradientTransform="matrix(0.50413225,0,0,0.49333391,-7.512295,48.695299)"
       gradientUnits="userSpaceOnUse"
       id="linearGradient1004"
       xlink:href="#linearGradient4632-0-6-4-4-4" /><radialGradient
       cx="605.71429"
       cy="486.64789"
       r="117.14286"
       fx="605.71429"
       fy="486.64789"
       id="radialGradient5877-0"
       xlink:href="#linearGradient4335"
       gradientUnits="userSpaceOnUse"
       gradientTransform="matrix(0.08300137,0,0,0.06588235,65.645022,81.844376)" /><radialGradient
       cx="605.71429"
       cy="486.64789"
       r="117.14286"
       fx="605.71429"
       fy="486.64789"
       id="radialGradient5879-9"
       xlink:href="#linearGradient4335"
       gradientUnits="userSpaceOnUse"
       gradientTransform="matrix(-0.08300135,0,0,0.06588235,62.354968,81.844376)" /></defs><g
     id="g401"
     transform="matrix(6.6700682,0,0,4.8432766,-2148.1731,324.82609)"><ellipse
       ry="12.5625"
       rx="37"
       cy="109.4375"
       cx="64"
       id="path4333"
       style="opacity:1;fill:url(#radialGradient4341);fill-opacity:1;stroke:none;stroke-width:9;stroke-linecap:square;stroke-miterlimit:4;stroke-dasharray:none;stroke-opacity:0.276995" /><path
       d="m 29.5,33.355144 v 73.092606 c 0,6.70719 10.76594,13.05225 35.407898,13.05225 24.641959,0 33.592104,-6.34506 33.592104,-13.05225 V 33.355144 Z"
       id="path2230"
       style="display:inline;overflow:visible;visibility:visible;fill:url(#linearGradient3055);fill-opacity:1;fill-rule:nonzero;stroke:none;stroke-width:1;stroke-opacity:1;marker:none" /><path
       style="display:inline;overflow:visible;visibility:visible;fill:none;fill-opacity:1;fill-rule:nonzero;stroke:#161b28;stroke-width:1;stroke-opacity:0.498039;marker:none"
       id="path4368"
       d="m 29.5,33.355144 v 73.092606 c 0,6.70719 10.76594,13.05225 35.407898,13.05225 24.641959,0 33.592104,-6.34506 33.592104,-13.05225 V 33.355144 Z" /><path
       d="m 30,30.351531 v 74.598609 c 0,6.79089 15.232002,14.43846 34.000002,14.43846 C 82.768,119.3886 98,111.74103 98,104.95014 V 30.351531 c 0,0 -68,0 -68,0 z"
       id="path3212"
       style="display:inline;overflow:visible;visibility:visible;opacity:0.4;fill:url(#radialGradient3052);fill-opacity:1;fill-rule:nonzero;stroke:none;stroke-width:1;marker:none" /><path
       d="m 30.5,27.489305 v 79.343085 c 0,6.46201 26.555319,11.44843 34.429922,11.70655 7.874606,0.2581 32.568967,-5.24454 32.568967,-11.70655 0,-4.95991 -0.14347,-74.385106 0,-79.343085 C 97.632718,22.864696 85.30735,16.500082 64.929922,16.500082 44.552497,16.500082 30.5,22.836362 30.5,27.489305 Z"
       id="path2206"
       style="display:inline;overflow:visible;visibility:visible;opacity:0.15;fill:none;stroke:url(#linearGradient5341);stroke-width:1;stroke-linecap:round;stroke-linejoin:round;stroke-miterlimit:4;stroke-dasharray:none;stroke-dashoffset:0;stroke-opacity:1;marker:none" /><path
       d="m 46.535187,39.932965 10.80038,2.040528 v 78.026337 l -10.80038,-2.60756 z"
       id="rect3244"
       style="display:inline;overflow:visible;visibility:visible;opacity:0.2;fill:url(#linearGradient3038);fill-opacity:1;fill-rule:nonzero;stroke:none;stroke-width:1;marker:none" /><path
       d="m 38.914027,41.194858 c 2.002255,0.736707 2.687783,2.939686 2.687783,4.939408 v 63.755304 c 0,1.99973 -0.685528,3.01652 -2.687783,2.2798 -2.002254,-0.73671 -2.687782,-2.93968 -2.687782,-4.93941 V 43.474669 c 0,-1.999726 0.685528,-3.01652 2.687782,-2.279811 z m 50.171945,0.430809 c -2.002253,0.73671 -2.687782,2.845922 -2.687782,4.845648 V 109.2952 c 0,1.99973 0.685529,3.01652 2.687782,2.27982 2.002252,-0.73671 2.687783,-2.93968 2.687783,-4.93941 V 43.779288 c 0,-1.999726 -0.685531,-2.89033 -2.687783,-2.153621 z"
       id="path3287"
       style="display:inline;overflow:visible;visibility:visible;opacity:0.15;fill:url(#linearGradient3035);fill-opacity:1;fill-rule:nonzero;stroke:none;stroke-width:0.999922;marker:none;enable-background:accumulate" /><path
       d="m 76.542985,44.007672 c -2.002252,0.0921 -2.718249,1.776112 -2.718249,3.775834 v 63.755304 c 0,1.99972 0.715997,3.53547 2.718249,3.44339 2.002256,-0.0921 2.687784,-1.77611 2.687784,-3.77584 V 47.451057 c 0,-1.999726 -0.685528,-3.535475 -2.687784,-3.443385 z"
       id="path3293"
       style="display:inline;overflow:visible;visibility:visible;opacity:0.3;fill:url(#linearGradient3032);fill-opacity:1;fill-rule:nonzero;stroke:none;stroke-width:0.999922;marker:none;enable-background:accumulate" /><path
       style="display:inline;overflow:visible;visibility:visible;opacity:0.3;fill:url(#linearGradient5339);fill-opacity:1;fill-rule:nonzero;stroke:none;stroke-width:0.999922;marker:none;enable-background:accumulate"
       id="path5337"
       d="m 51.457013,44.007672 c 2.002257,0.0921 2.687783,1.776112 2.687783,3.775834 v 63.755304 c 0,1.99972 -0.685526,3.53547 -2.687783,3.44339 -2.002253,-0.0921 -2.718249,-1.77611 -2.718249,-3.77584 V 47.451057 c 0,-1.999726 0.715996,-3.535475 2.718249,-3.443385 z m 12.542986,1.794341 c -2.002253,0.09211 -2.687788,1.77611 -2.687788,3.775833 v 63.755304 c 0,1.99973 0.685535,3.53547 2.687788,3.44338 2.002255,-0.0921 2.748706,-1.77612 2.748706,-3.77583 V 49.245397 c 0,-1.999726 -0.746451,-3.535474 -2.748706,-3.443384 z" /><path
       style="display:inline;overflow:visible;visibility:visible;opacity:0.350649;fill:none;stroke:url(#linearGradient3821);stroke-width:0.5;stroke-miterlimit:4;stroke-dasharray:none;stroke-opacity:1;marker:none;enable-background:accumulate"
       id="path3045"
       d="m 38.914027,41.625667 c 2.002255,0.736707 2.687783,2.508877 2.687783,4.508599 v 63.755304 c 0,1.99973 -0.685528,3.01652 -2.687783,2.2798 -2.002254,-0.73671 -2.687782,-2.93968 -2.687782,-4.93941 V 43.474669 c 0,-1.999726 0.685528,-2.585711 2.687782,-1.849002 z m 50.171945,0 c -2.002253,0.73671 -2.687782,2.845922 -2.687782,4.845648 V 109.2952 c 0,1.99973 0.685529,3.01652 2.687782,2.27982 2.002252,-0.73671 2.687783,-2.93968 2.687783,-4.93941 V 43.779288 c 0,-1.999726 -0.685531,-2.89033 -2.687783,-2.153621 z" /><path
       d="m 51.457013,44.007672 c 2.002257,0.0921 2.687783,1.776112 2.687783,3.775834 v 63.755304 c 0,1.99972 -0.685526,3.53547 -2.687783,3.44339 -2.002253,-0.0921 -2.718249,-1.77611 -2.718249,-3.77584 V 47.451057 c 0,-1.999726 0.715996,-3.535475 2.718249,-3.443385 z m 12.542986,1.794341 c -2.002253,0.09211 -2.687788,1.77611 -2.687788,3.775833 v 63.755304 c 0,1.99973 0.685535,3.53547 2.687788,3.44338 2.002255,-0.0921 2.748706,-1.77612 2.748706,-3.77583 V 49.245397 c 0,-1.999726 -0.746451,-3.535474 -2.748706,-3.443384 z"
       id="path3823"
       style="display:inline;overflow:visible;visibility:visible;opacity:0.4329;fill:none;fill-opacity:1;fill-rule:nonzero;stroke:url(#linearGradient3831);stroke-width:0.5;stroke-miterlimit:4;stroke-dasharray:none;stroke-opacity:1;marker:none;enable-background:accumulate" /><path
       style="display:inline;overflow:visible;visibility:visible;opacity:0.463203;fill:none;fill-opacity:1;fill-rule:nonzero;stroke:url(#linearGradient3841);stroke-width:0.5;stroke-miterlimit:4;stroke-dasharray:none;stroke-opacity:1;marker:none;enable-background:accumulate"
       id="path3833"
       d="m 76.542985,44.007672 c -2.002252,0.0921 -2.718249,1.776112 -2.718249,3.775834 v 63.755304 c 0,1.99972 0.715997,3.53547 2.718249,3.44339 2.002256,-0.0921 2.687784,-1.77611 2.687784,-3.77584 V 47.451057 c 0,-1.999726 -0.685528,-3.535475 -2.687784,-3.443385 z" /><path
       id="path5418"
       d="m 64,22.513672 c -10.797728,0 -20.618836,0.567063 -27.544922,2.427734 -3.464688,0.930777 -6.126147,2.184585 -7.80664,3.251953 C 26.898969,29.304538 26.5,30.586316 26.5,31.232422 v 9.828125 c 0,0.646106 0.393526,1.969347 2.148438,3.083984 1.669606,1.060455 4.334188,2.406983 7.80664,3.339844 6.899682,1.853578 16.728606,3.029297 27.544922,3.029297 10.816316,0 20.645238,-1.175719 27.544922,-3.029297 3.476333,-0.933904 6.142478,-2.325816 7.80664,-3.382813 C 101.0847,43.000755 101.5,41.839468 101.5,41.193359 v -9.83789 c 0,-0.323062 -0.095,-0.799265 -0.41016,-1.375 -0.31513,-0.575735 -0.85613,-1.224851 -1.738278,-1.785157 C 97.64272,27.109939 94.989389,26.101126 91.544922,25.175781 84.629081,23.317863 74.804942,22.513672 64,22.513672 Z"
       style="color:#000000;display:inline;overflow:visible;visibility:visible;fill:url(#linearGradient3076);fill-opacity:1;fill-rule:nonzero;stroke:none;stroke-width:1.03944;marker:none;enable-background:accumulate" /><path
       id="path5019-9"
       d="M 63.999997,22.5 C 43.289323,22.5 26.5,26.155922 26.5,31.4237 v 9.538151 C 26.5,46.229626 43.289323,50.5 63.999997,50.5 84.710672,50.5 101.5,46.229626 101.5,40.961851 V 31.4237 C 101.5,26.155922 84.710672,22.5 63.999997,22.5 Z"
       style="color:#000000;display:inline;overflow:visible;visibility:visible;opacity:1;fill:none;stroke:#161b28;stroke-width:1;stroke-linecap:butt;stroke-linejoin:miter;stroke-miterlimit:4;stroke-dasharray:none;stroke-dashoffset:0;stroke-opacity:0.498039;marker:none;enable-background:accumulate" /><path
       style="color:#000000;display:inline;overflow:visible;visibility:visible;opacity:0.7;fill:url(#radialGradient3922);fill-opacity:1;stroke:none;stroke-width:0.521749;stroke-linecap:round;stroke-linejoin:round;stroke-miterlimit:4;stroke-dasharray:none;stroke-dashoffset:0;stroke-opacity:1;marker:none;enable-background:accumulate"
       id="path3914"
       d="m 101.09773,31.502563 a 37,9 0 1 0 -73.999997,0 37,9 0 0 0 73.999997,0 z" /><path
       d="m 100.5,32.003722 a 36.500002,8.500004 0 1 0 -72.999997,0 36.500002,8.500004 0 0 0 72.999997,0 z"
       id="path4564-1-6"
       style="color:#000000;display:inline;overflow:visible;visibility:visible;opacity:0.7;fill:none;stroke:url(#linearGradient3083);stroke-width:1;stroke-linecap:round;stroke-linejoin:round;stroke-miterlimit:4;stroke-dasharray:none;stroke-dashoffset:0;stroke-opacity:1;marker:none;enable-background:accumulate" /><ellipse
       ry="2"
       rx="4"
       cy="30"
       cx="53"
       id="path4319"
       style="opacity:0.1;fill:#000000;fill-opacity:1;stroke:none;stroke-width:9;stroke-linecap:square;stroke-miterlimit:4;stroke-dasharray:none;stroke-opacity:0.276995" /><ellipse
       style="opacity:0.1;fill:#000000;fill-opacity:1;stroke:none;stroke-width:9;stroke-linecap:square;stroke-miterlimit:4;stroke-dasharray:none;stroke-opacity:0.276995"
       id="ellipse4329"
       cx="75"
       cy="30"
       rx="4"
       ry="2" /><path
       id="path3902"
       d="m 50.5,29.080473 v -7.042764 c 0,-1.845961 2.004848,-4.537884 5.844537,-4.537884 h 15.51907 c 3.839689,0 5.636393,2.691923 5.636393,4.537884 v 7.042764 c 0,1.845961 -5,1.845961 -5,0 V 23.883671 C 72.5,22.037709 69.943762,22.5 69.943762,22.5 h -11.67938 c 0,0 -2.764382,-0.462298 -2.764382,1.383671 v 5.196802 c 0,1.845961 -5,1.845961 -5,0 z"
       style="fill:url(#radialGradient3910);fill-opacity:1;stroke:#161b28;stroke-opacity:0.498039" /><path
       id="path4366"
       d="m 55.5625,18.5625 17.375,0.0625"
       style="opacity:0.5;fill:none;fill-rule:evenodd;stroke:#ffffff;stroke-width:1px;stroke-linecap:round;stroke-linejoin:miter;stroke-opacity:1" /></g><g
     id="g984"
     transform="matrix(19.299352,0,0,16.76415,-192.42772,-31.372462)"><path
       style="display:inline;overflow:visible;visibility:visible;fill:url(#radialGradient3060);fill-opacity:1;fill-rule:evenodd;stroke:none;stroke-width:1.05496;marker:none"
       id="path12941"
       d="M 53,54.001101 C 52.998689,59.52352 43.373196,63 31.5,63 19.626803,63 10.00131,59.52352 10,54.001101 9.9986911,48.477823 19.624952,44 31.5,44 43.375048,44 53.001309,48.477823 53,54.001101 Z" /><path
       style="display:inline;overflow:visible;visibility:visible;fill:url(#linearGradient3055-3);fill-opacity:1;fill-rule:nonzero;stroke:url(#linearGradient3057);stroke-width:1;stroke-opacity:1;marker:none"
       id="path2230-4"
       d="M 12.5,13.5 V 54.227274 C 12.5,57.96452 18.429068,61.5 32.000002,61.5 45.570935,61.5 50.5,57.96452 50.5,54.227274 V 13.5 Z" /><path
       style="display:inline;overflow:visible;visibility:visible;opacity:0.4;fill:url(#radialGradient3052-4);fill-opacity:1;fill-rule:nonzero;stroke:none;stroke-width:1;marker:none"
       id="path3212-9"
       d="m 13.174644,12.218041 v 41.566423 c 0,3.783888 8.433761,8.045118 18.825358,8.045114 10.391597,0 18.825355,-4.261226 18.825355,-8.045114 V 12.218041 c 0,0 -37.650713,0 -37.650713,0 z" /><path
       style="display:inline;overflow:visible;visibility:visible;opacity:0.15;fill:none;stroke:url(#linearGradient5341-4);stroke-width:1;stroke-linecap:round;stroke-linejoin:round;stroke-miterlimit:4;stroke-dasharray:none;stroke-dashoffset:0;stroke-opacity:1;marker:none"
       id="path2206-5"
       d="m 14.5,10.623206 c 0,2.592624 0,41.026119 0,44.013041 0,3.600644 14.268766,6.379086 18.499967,6.522904 C 37.231168,61.302969 50.5,58.236891 50.5,54.636247 50.5,51.872584 50.42291,13.385796 50.5,10.623206 50.571909,8.0463686 43.949214,4.5 32.999967,4.5 22.05072,4.5 14.5,8.0305819 14.5,10.623206 Z" /><path
       style="display:inline;overflow:visible;visibility:visible;opacity:0.2;fill:url(#linearGradient3038-8);fill-opacity:1;fill-rule:nonzero;stroke:none;stroke-width:1;marker:none"
       id="rect3244-0"
       d="m 21.753223,17.556825 6.027485,1.136984 V 62.17016 l -6.027485,-1.452938 z" /><path
       style="display:inline;overflow:visible;visibility:visible;opacity:0.15;fill:url(#linearGradient3035-8);fill-opacity:1;fill-rule:nonzero;stroke:none;stroke-width:0.999922;marker:none;enable-background:accumulate"
       id="path3287-4"
       d="m 17.5,18.259953 c 1.11742,0.410494 1.5,1.637996 1.5,2.752243 v 35.524512 c 0,1.114249 -0.38258,1.680808 -1.5,1.270313 C 16.38258,57.396525 16,56.169025 16,55.054776 v -35.52451 c 0,-1.114249 0.38258,-1.680808 1.5,-1.270313 z M 45.5,18.5 C 44.382581,18.910496 44,20.085751 44,21.2 v 35.005533 c 0,1.114249 0.382581,1.680808 1.5,1.270314 C 46.617419,57.065352 47,55.83785 47,54.723603 V 19.7 c 0,-1.114249 -0.382581,-1.610495 -1.5,-1.2 z" /><path
       style="display:inline;overflow:visible;visibility:visible;opacity:0.3;fill:url(#linearGradient3032-86);fill-opacity:1;fill-rule:nonzero;stroke:none;stroke-width:0.999922;marker:none;enable-background:accumulate"
       id="path3293-8"
       d="m 38.5,20.941658 c -1.117419,0.05132 -1.517003,0.989651 -1.517003,2.103898 v 35.524512 c 0,1.114249 0.399584,1.96997 1.517003,1.918657 1.11742,-0.05132 1.5,-0.98965 1.5,-2.103898 V 22.860315 c 0,-1.114249 -0.38258,-1.96997 -1.5,-1.918657 z" /><path
       d="m 24.5,20.941658 c 1.117421,0.05132 1.5,0.989651 1.5,2.103898 v 35.524512 c 0,1.114249 -0.382579,1.96997 -1.5,1.918657 -1.117419,-0.05131 -1.517003,-0.98965 -1.517003,-2.103898 V 22.860315 c 0,-1.114249 0.399584,-1.96997 1.517003,-1.918657 z m 7,0.999808 c -1.117419,0.05132 -1.500003,0.989651 -1.500003,2.103898 v 35.524512 c 0,1.114249 0.382584,1.969971 1.500003,1.918658 1.11742,-0.05132 1.534,-0.98965 1.534,-2.103898 V 23.860123 c 0,-1.114249 -0.41658,-1.969969 -1.534,-1.918657 z"
       id="path5337-7"
       style="display:inline;overflow:visible;visibility:visible;opacity:0.3;fill:url(#linearGradient5339-1);fill-opacity:1;fill-rule:nonzero;stroke:none;stroke-width:0.999922;marker:none;enable-background:accumulate" /><path
       d="m 17.5,18.5 c 1.11742,0.410494 1.5,1.397949 1.5,2.512196 v 35.524512 c 0,1.114249 -0.38258,1.680808 -1.5,1.270313 C 16.38258,57.396525 16,56.169025 16,55.054776 V 19.530266 C 16,18.416017 16.38258,18.089505 17.5,18.5 Z m 28,0 C 44.382581,18.910496 44,20.085751 44,21.2 v 35.005533 c 0,1.114249 0.382581,1.680808 1.5,1.270314 C 46.617419,57.065352 47,55.83785 47,54.723603 V 19.7 c 0,-1.114249 -0.382581,-1.610495 -1.5,-1.2 z"
       id="path3045-1"
       style="display:inline;overflow:visible;visibility:visible;opacity:0.350649;fill:none;stroke:url(#linearGradient3821-9);stroke-width:0.5;stroke-miterlimit:4;stroke-dasharray:none;stroke-opacity:1;marker:none;enable-background:accumulate" /><path
       style="display:inline;overflow:visible;visibility:visible;opacity:0.4329;fill:none;stroke:url(#linearGradient3831-2);stroke-width:0.5;stroke-miterlimit:4;stroke-dasharray:none;stroke-opacity:1;marker:none;enable-background:accumulate"
       id="path3823-7"
       d="m 24.5,20.941658 c 1.117421,0.05132 1.5,0.989651 1.5,2.103898 v 35.524512 c 0,1.114249 -0.382579,1.96997 -1.5,1.918657 -1.117419,-0.05131 -1.517003,-0.98965 -1.517003,-2.103898 V 22.860315 c 0,-1.114249 0.399584,-1.96997 1.517003,-1.918657 z m 7,0.999808 c -1.117419,0.05132 -1.500003,0.989651 -1.500003,2.103898 v 35.524512 c 0,1.114249 0.382584,1.969971 1.500003,1.918658 1.11742,-0.05132 1.534,-0.98965 1.534,-2.103898 V 23.860123 c 0,-1.114249 -0.41658,-1.969969 -1.534,-1.918657 z" /><path
       d="m 38.5,20.941658 c -1.117419,0.05132 -1.517003,0.989651 -1.517003,2.103898 v 35.524512 c 0,1.114249 0.399584,1.96997 1.517003,1.918657 1.11742,-0.05132 1.5,-0.98965 1.5,-2.103898 V 22.860315 c 0,-1.114249 -0.38258,-1.96997 -1.5,-1.918657 z"
       id="path3833-2"
       style="display:inline;overflow:visible;visibility:visible;opacity:0.463203;fill:none;stroke:url(#linearGradient3841-0);stroke-width:0.5;stroke-miterlimit:4;stroke-dasharray:none;stroke-opacity:1;marker:none;enable-background:accumulate" /><path
       style="display:inline;overflow:visible;visibility:visible;fill:url(#linearGradient3410);fill-opacity:1;fill-rule:nonzero;stroke:url(#linearGradient3412);stroke-width:0.983889;stroke-linecap:round;stroke-linejoin:round;stroke-miterlimit:4;stroke-dasharray:none;stroke-dashoffset:0;stroke-opacity:1;marker:none"
       id="path3164"
       d="m 50.508053,13.499999 c 0,3.318159 -7.727637,6.008056 -18.503918,6.008056 -10.776287,0 -19.512191,-2.689897 -19.512191,-6.008056 0,-3.318157 8.735904,-6.0080542 19.512191,-6.0080542 10.776281,0 18.503918,2.6898972 18.503918,6.0080542 z" /><path
       style="display:inline;overflow:visible;visibility:visible;opacity:0.3;fill:url(#radialGradient3430);fill-opacity:1;fill-rule:nonzero;stroke:none;stroke-width:0.98389;marker:none"
       id="path3197"
       d="M 50,13.5 C 50,16.537567 41.717266,19 31.500001,19 21.282732,19 13,16.537567 13,13.5 13,10.462434 21.282732,8 31.500001,8 41.717266,8 50,10.462434 50,13.5 Z" /><g
       transform="translate(-32,-10)"
       id="g3202"><path
         style="color:#000000;display:inline;overflow:visible;visibility:visible;fill:#e7f0f4;fill-opacity:1;fill-rule:nonzero;stroke:none;stroke-width:1;marker:none;enable-background:accumulate"
         id="path3204"
         d="m 72.298172,14.259839 c -2.364264,0.61017 -5.766075,0.964388 -6.682888,2.119755 -0.643654,-0.234919 -1.463333,-0.702563 -2.250107,-0.474793 -1.355202,0.392328 -4.360456,0.184621 -4.131642,2.489548 0.02072,0.208667 0.05771,0.412519 0.146133,0.606278 -1.658167,0.642412 -2.744325,1.735307 -2.744325,2.975485 0,1.984307 3.352584,2.725381 6.388145,3.302138 2.542373,0.483051 10.049214,0.259203 11.570234,0.02542 2.083257,-0.320195 6.559207,-0.87549 6.159328,-2.819087 -0.305084,-1.482853 -1.475773,-3.428949 -3.949425,-3.903704 0.06712,-0.205939 0.08817,-0.417324 0.09744,-0.634253 0.07627,-1.784259 -2.648775,-2.494001 -2.771245,-2.620663 -0.678894,-0.702132 -1.421509,-1.343492 -1.831648,-1.066124 z" /><path
         style="color:#000000;display:inline;overflow:visible;visibility:visible;opacity:0.8;fill:none;stroke:url(#linearGradient986);stroke-width:1;stroke-linecap:round;stroke-linejoin:round;stroke-miterlimit:4;stroke-dasharray:none;stroke-dashoffset:0;stroke-opacity:1;marker:none;enable-background:accumulate"
         id="path3206"
         d="m 70.218651,15.930848 c -1.553936,0 -2.840479,0.255087 -3.057667,0.587993 -0.508739,0.725577 -0.612958,0.634769 -1.33861,0.500903 -0.540442,0.341435 -1.37974,0.232706 -1.942198,-0.03274 -0.357867,-0.180017 -1.177724,0.116295 -1.500909,0.116295 -0.469171,0 -1.712874,0.158018 -1.958538,0.290484 -0.01854,0.693937 -0.357069,1.936745 -0.674187,2.476378 -1.820668,1.166553 -1.853666,2.261915 -1.853666,2.261915 0,-0.290387 0.873355,1.078543 1.451651,1.528941 0.578278,0.450388 1.778588,0.792959 2.970724,0.787865 l 11.902657,-0.05085 c 1.192134,-0.0051 2.5888,0.0051 3.138024,-0.431934 0.549222,-0.437026 2.621142,-1.157026 2.621142,-0.91877 0,0.226279 -1.221065,-2.017027 -0.885748,-1.746913 1.350556,1.087933 1.912682,1.485625 -1.789652,-1.194644 l -1.344958,-1.658767 0.08696,-0.479263 h -0.08696 l -0.173885,0.359447 0.08693,-0.359447 H 75.69588 l 0.487131,-0.337824 -0.574087,0.21799 h 0.08693 v -0.119803 l -0.159126,-0.762712 c -1.218675,-1.604686 -0.874482,-0.678833 -1.491153,-0.838712 -0.293937,-0.803386 -0.147791,-0.106325 -0.557733,-0.323193 -0.507243,-0.399262 0.435155,-0.63533 -0.676017,-0.63533 z" /><path
         style="color:#000000;display:inline;overflow:visible;visibility:visible;opacity:0.4;fill:none;stroke:#25323f;stroke-width:1;stroke-linecap:round;stroke-linejoin:round;stroke-miterlimit:4;stroke-dasharray:none;stroke-dashoffset:0;stroke-opacity:1;marker:none;enable-background:accumulate"
         id="path3208"
         d="m 67.411746,16.017784 c 0.536259,0.263258 0.525718,0.81463 0.271789,1.434355 -0.02349,0.05734 1.730592,0.903392 1.703173,0.961724 -0.0381,0.08106 -1.859426,-0.625222 -1.904002,-0.543042 -0.62332,1.149151 -0.367313,2.489305 -0.367313,2.489305 m 2.21767,-5.463313 c -1.969518,1.213618 -2.791494,0.340389 -3.784582,1.424843 -0.643654,-0.230652 -1.405597,-0.366318 -2.22468,-0.366318 -0.60128,0 -1.613663,0.332974 -1.613663,0.332974 0.516743,0.308053 0.60471,0.977386 0.513916,1.691483 -0.009,0.07068 2.115869,0.828238 2.103623,0.899488 -0.01679,0.09765 -2.171996,-0.490897 -2.193824,-0.393544 -0.09213,0.410878 -0.223617,0.812086 -0.347559,1.14423 -0.03011,0.08069 1.714638,3.149999 1.691343,3.076441 -0.754638,-2.382966 -4.556907,-2.298919 -1.887416,-2.171801 0,0 0.747861,-4.288361 -0.152542,-4.14777 0,0 -2.092985,-0.0053 -2.092985,0.667208 0,0.20587 -0.120246,1.650788 -0.03183,1.841029 -0.507164,0.192916 -0.960818,0.427211 -1.346246,0.694367 -0.265251,0.183854 -0.498191,0.383269 -0.694023,0.595472 -0.04378,0.04743 2.317834,1.916913 2.277827,1.965587 -0.06895,0.08389 -2.535752,-1.651852 -2.593095,-1.564522 -0.251479,0.382976 -0.515891,1.128118 -0.515891,1.56103 0,1.94826 3.985833,2.452805 6.354981,2.919003 1.313939,0.258554 5.622944,0.490538 5.622944,0.490538 0.336495,-0.716115 0.976727,-1.738381 1.6119,-2.691072 0.03395,-0.05092 -3.313475,-4.703331 0.101753,-0.1521 0.03816,0.05085 0.0708,-0.105292 0.106037,-0.157452 0.824882,-1.220861 0.566332,-1.565792 0.566332,-1.565792 l 0.199877,0.541622 1.488369,1.568634 -1.703202,-1.245739 -2.435116,3.659989 -2.793583,-2.884122 2.913967,2.907254 c 2.423085,-0.02936 6.034246,-0.363281 6.074339,-0.367742 3.707895,-0.412614 6.441313,-1.125608 6.059957,-2.692512 -0.316321,-1.29969 -0.93513,-3.155824 -2.876527,-3.750289 -0.07857,-0.02407 -1.113563,3.992428 -1.113563,3.992428 0,0 0.763717,-4.091841 0.70749,-4.106175 -0.191851,-0.04891 -0.388898,-0.09253 -0.590547,-0.130528 0.06712,-0.202209 0.09744,-0.409545 0.09744,-0.622728 0,-1.184448 -1.235935,-1.844821 -2.874333,-2.445839 -0.05214,-0.01913 -1.282955,2.038619 -1.909189,3.078726 -0.06448,0.107088 2.620102,1.369923 2.451573,1.162394 -1.266455,-1.559535 -3.159694,-0.447647 -3.159694,-0.447647 -0.0206,-0.03211 0.767636,-1.078913 1.209625,-1.974728 0.03174,-0.06434 -6.724417,-2.188423 0.09578,-0.19403 0.04002,0.0117 0.03696,-0.07483 0.05545,-0.11228 0.500717,-1.013851 1.002716,-2.030363 0.96101,-2.042895 -0.467411,-0.140453 0.22311,-0.424876 -0.307898,-0.491485 -0.419498,-0.05262 -3.652215,0.275557 -4.023545,0.50437 z" /></g><g
       id="g3080"
       transform="rotate(90,31.5,35.5)"><path
         transform="matrix(3.3989637,0,0,2.962963,5.3082902,3.6481479)"
         d="m 8,1.46875 c -1.7572026,0 -3.3544793,0.2196475 -4.46875,0.5625 -0.5571353,0.1714263 -0.9846671,0.3694792 -1.25,0.5625 C 2.0159171,2.7867708 1.96875,2.9230812 1.96875,3 v 2 c 0,0.076919 0.047167,0.2132292 0.3125,0.40625 0.2653329,0.1930208 0.6928647,0.3910737 1.25,0.5625 1.1142707,0.3428525 2.7115474,0.5625 4.46875,0.5625 1.7572027,0 3.354479,-0.2196475 4.46875,-0.5625 0.557135,-0.1714263 0.984667,-0.3694792 1.25,-0.5625 C 13.984083,5.2132292 14.03125,5.0769189 14.03125,5 V 3 c 0,-0.076919 -0.04717,-0.2132292 -0.3125,-0.40625 -0.265333,-0.1930208 -0.692865,-0.3910737 -1.25,-0.5625 C 11.354479,1.6883975 9.7572027,1.46875 8,1.46875 Z"
         id="path5418-7"
         style="color:#000000;display:inline;overflow:visible;visibility:visible;fill:url(#linearGradient3081);fill-opacity:1;fill-rule:nonzero;stroke:none;stroke-width:1.03944;marker:none;enable-background:accumulate" /><path
         id="path5019-9-2"
         d="m 32.5,7.4999999 c -11.597978,0 -21,2.3878138 -21,5.3333341 v 5.333333 c 0,2.945519 9.402022,5.333333 21,5.333333 11.597978,0 21,-2.387814 21,-5.333333 v -5.333333 c 0,-2.9455203 -9.402022,-5.3333341 -21,-5.3333341 z"
         style="color:#000000;display:inline;overflow:visible;visibility:visible;opacity:0.5;fill:none;stroke:#161b28;stroke-width:1;stroke-linecap:butt;stroke-linejoin:miter;stroke-miterlimit:4;stroke-dasharray:none;stroke-dashoffset:0;stroke-opacity:1;marker:none;enable-background:accumulate" /><path
         transform="matrix(2.8571429,0,0,-1.2857143,-41.785714,17.5)"
         d="M 33,3.5 C 33,5.4329966 29.865993,7 26,7 22.134007,7 19,5.4329966 19,3.5 19,1.5670034 22.134007,0 26,0 c 3.865993,0 7,1.5670034 7,3.5 z"
         id="path4564-1-6-2"
         style="color:#000000;display:inline;overflow:visible;visibility:visible;opacity:0.7;fill:none;stroke:url(#linearGradient3092);stroke-width:0.521749;stroke-linecap:round;stroke-linejoin:round;stroke-miterlimit:4;stroke-dasharray:none;stroke-dashoffset:0;stroke-opacity:1;marker:none;enable-background:accumulate" /><path
         style="color:#000000;display:inline;overflow:visible;visibility:visible;opacity:0.7;fill:url(#radialGradient3094);fill-opacity:1;stroke:none;stroke-width:0.521749;marker:none;enable-background:accumulate"
         id="path3914-6"
         d="M 33,3.5 C 33,5.4329966 29.865993,7 26,7 22.134007,7 19,5.4329966 19,3.5 19,1.5670034 22.134007,0 26,0 c 3.865993,0 7,1.5670034 7,3.5 z"
         transform="matrix(2.8571429,0,0,-1.2857143,-41.785714,17.5)" /><path
         transform="matrix(1.9866333,0,0,6.9532167,-22.85714,-77.005868)"
         d="m 26.103026,12.872584 c 0,0.119143 -0.676091,0.215728 -1.510092,0.215728 -0.834001,0 -1.510093,-0.09659 -1.510093,-0.215728 0,-0.119143 0.676092,-0.215727 1.510093,-0.215727 0.834001,0 1.510092,0.09658 1.510092,0.215727 z"
         id="path3116"
         style="opacity:0.2;fill:#161b28;fill-opacity:1;stroke:none" /><path
         style="opacity:0.2;fill:#161b28;fill-opacity:1;stroke:none"
         id="path3912"
         d="m 26.103026,12.872584 c 0,0.119143 -0.676091,0.215728 -1.510092,0.215728 -0.834001,0 -1.510093,-0.09659 -1.510093,-0.215728 0,-0.119143 0.676092,-0.215727 1.510093,-0.215727 0.834001,0 1.510092,0.09658 1.510092,0.215727 z"
         transform="matrix(1.9866333,0,0,6.9532167,-10.85714,-77.005868)" /><path
         id="path3902-1"
         d="M 24.5,11.728572 V 7.5855714 C 24.5,6.557 26.642857,4.4998572 28.785714,4.4998572 h 6.428572 C 37.357143,4.4998572 39.5,6.557 39.5,7.5855714 v 4.1430006 c 0,1.028571 -3,1.028571 -3,0 V 8.6141428 c 0,-1.0285714 -2.357143,-1.1142862 -2.357143,-1.1142862 h -4.285714 c 0,0 -2.357143,0.085715 -2.357143,1.1142862 v 3.1144292 c 0,1.028571 -3,1.028571 -3,0 z"
         style="fill:url(#radialGradient3096);fill-opacity:1;stroke:none" /><path
         style="opacity:0.35;fill:none;stroke:#161b28;stroke-width:1;stroke-miterlimit:4;stroke-dasharray:none;stroke-opacity:1"
         d="M 24.5,11.728572 V 7.5855714 C 24.5,6.557 26.642857,4.4998572 28.785714,4.4998572 h 6.428572 C 37.357143,4.4998572 39.5,6.557 39.5,7.5855714 v 4.1430006 c 0,1.028571 -3,1.028571 -3,0 V 8.6141428 c 0,-1.0285714 -2.357143,-1.1142862 -2.357143,-1.1142862 h -4.285714 c 0,0 -2.357143,0.085715 -2.357143,1.1142862 v 3.1144292 c 0,1.028571 -3,1.028571 -3,0 z"
         id="path3900" /></g><g
       transform="translate(-40,-12.056551)"
       id="g3241"><path
         style="color:#000000;display:inline;overflow:visible;visibility:visible;fill:#e7f0f4;fill-opacity:1;fill-rule:nonzero;stroke:none;stroke-width:1;marker:none;enable-background:accumulate"
         id="path3243"
         d="m 72.298172,14.259839 c -2.364264,0.61017 -5.766075,0.964388 -6.682888,2.119755 -0.643654,-0.234919 -1.463333,-0.702563 -2.250107,-0.474793 -1.355202,0.392328 -4.360456,0.184621 -4.131642,2.489548 0.02072,0.208667 0.05771,0.412519 0.146133,0.606278 -1.658167,0.642412 -2.744325,1.735307 -2.744325,2.975485 0,1.984307 3.352584,2.725381 6.388145,3.302138 2.542373,0.483051 10.049214,0.259203 11.570234,0.02542 2.083257,-0.320195 6.559207,-0.87549 6.159328,-2.819087 -0.305084,-1.482853 -1.475773,-3.428949 -3.949425,-3.903704 0.06712,-0.205939 0.08817,-0.417324 0.09744,-0.634253 0.07627,-1.784259 -2.648775,-2.494001 -2.771245,-2.620663 -0.678894,-0.702132 -1.421509,-1.343492 -1.831648,-1.066124 z" /><path
         style="color:#000000;display:inline;overflow:visible;visibility:visible;opacity:0.8;fill:none;stroke:url(#linearGradient988);stroke-width:1;stroke-linecap:round;stroke-linejoin:round;stroke-miterlimit:4;stroke-dasharray:none;stroke-dashoffset:0;stroke-opacity:1;marker:none;enable-background:accumulate"
         id="path3245"
         d="m 70.218651,15.930848 c -1.553936,0 -2.840479,0.255087 -3.057667,0.587993 -0.508739,0.725577 -0.612958,0.634769 -1.33861,0.500903 -0.540442,0.341435 -1.37974,0.232706 -1.942198,-0.03274 -0.357867,-0.180017 -1.177724,0.116295 -1.500909,0.116295 -0.469171,0 -1.712874,0.158018 -1.958538,0.290484 -0.01854,0.693937 -0.357069,1.936745 -0.674187,2.476378 -1.820668,1.166553 -1.853666,2.261915 -1.853666,2.261915 0,-0.290387 0.873355,1.078543 1.451651,1.528941 0.578278,0.450388 1.778588,0.792959 2.970724,0.787865 l 11.902657,-0.05085 c 1.192134,-0.0051 2.5888,0.0051 3.138024,-0.431934 0.549222,-0.437026 2.621142,-1.157026 2.621142,-0.91877 0,0.226279 -1.221065,-2.017027 -0.885748,-1.746913 1.350556,1.087933 1.912682,1.485625 -1.789652,-1.194644 l -1.344958,-1.658767 0.08696,-0.479263 h -0.08696 l -0.173885,0.359447 0.08693,-0.359447 H 75.69588 l 0.487131,-0.337824 -0.574087,0.21799 h 0.08693 v -0.119803 l -0.159126,-0.762712 c -1.218675,-1.604686 -0.874482,-0.678833 -1.491153,-0.838712 -0.293937,-0.803386 -0.147791,-0.106325 -0.557733,-0.323193 -0.507243,-0.399262 0.435155,-0.63533 -0.676017,-0.63533 z" /><path
         style="color:#000000;display:inline;overflow:visible;visibility:visible;opacity:0.4;fill:none;stroke:#25323f;stroke-width:1;stroke-linecap:round;stroke-linejoin:round;stroke-miterlimit:4;stroke-dasharray:none;stroke-dashoffset:0;stroke-opacity:1;marker:none;enable-background:accumulate"
         id="path3247"
         d="m 67.411746,16.017784 c 0.536259,0.263258 0.525718,0.81463 0.271789,1.434355 -0.02349,0.05734 1.730592,0.903392 1.703173,0.961724 -0.0381,0.08106 -1.859426,-0.625222 -1.904002,-0.543042 -0.62332,1.149151 -0.367313,2.489305 -0.367313,2.489305 m 2.21767,-5.463313 c -1.969518,1.213618 -2.791494,0.340389 -3.784582,1.424843 -0.643654,-0.230652 -1.405597,-0.366318 -2.22468,-0.366318 -0.60128,0 -1.613663,0.332974 -1.613663,0.332974 0.516743,0.308053 0.60471,0.977386 0.513916,1.691483 -0.009,0.07068 2.115869,0.828238 2.103623,0.899488 -0.01679,0.09765 -2.171996,-0.490897 -2.193824,-0.393544 -0.09213,0.410878 -0.223617,0.812086 -0.347559,1.14423 -0.03011,0.08069 1.714638,3.149999 1.691343,3.076441 -0.754638,-2.382966 -4.556907,-2.298919 -1.887416,-2.171801 0,0 0.747861,-4.288361 -0.152542,-4.14777 0,0 -2.092985,-0.0053 -2.092985,0.667208 0,0.20587 -0.120246,1.650788 -0.03183,1.841029 -0.507164,0.192916 -0.960818,0.427211 -1.346246,0.694367 -0.265251,0.183854 -0.498191,0.383269 -0.694023,0.595472 -0.04378,0.04743 2.317834,1.916913 2.277827,1.965587 -0.06895,0.08389 -2.535752,-1.651852 -2.593095,-1.564522 -0.251479,0.382976 -0.515891,1.128118 -0.515891,1.56103 0,1.94826 3.985833,2.452805 6.354981,2.919003 1.313939,0.258554 5.622944,0.490538 5.622944,0.490538 0.336495,-0.716115 0.976727,-1.738381 1.6119,-2.691072 0.03395,-0.05092 -3.313475,-4.703331 0.101753,-0.1521 0.03816,0.05085 0.0708,-0.105292 0.106037,-0.157452 0.824882,-1.220861 0.566332,-1.565792 0.566332,-1.565792 l 0.199877,0.541622 1.488369,1.568634 -1.703202,-1.245739 -2.435116,3.659989 -2.793583,-2.884122 2.913967,2.907254 c 2.423085,-0.02936 6.034246,-0.363281 6.074339,-0.367742 3.707895,-0.412614 6.441313,-1.125608 6.059957,-2.692512 -0.316321,-1.29969 -0.93513,-3.155824 -2.876527,-3.750289 -0.07857,-0.02407 -1.113563,3.992428 -1.113563,3.992428 0,0 0.763717,-4.091841 0.70749,-4.106175 -0.191851,-0.04891 -0.388898,-0.09253 -0.590547,-0.130528 0.06712,-0.202209 0.09744,-0.409545 0.09744,-0.622728 0,-1.184448 -1.235935,-1.844821 -2.874333,-2.445839 -0.05214,-0.01913 -1.282955,2.038619 -1.909189,3.078726 -0.06448,0.107088 2.620102,1.369923 2.451573,1.162394 -1.266455,-1.559535 -3.159694,-0.447647 -3.159694,-0.447647 -0.0206,-0.03211 0.767636,-1.078913 1.209625,-1.974728 0.03174,-0.06434 -6.724417,-2.188423 0.09578,-0.19403 0.04002,0.0117 0.03696,-0.07483 0.05545,-0.11228 0.500717,-1.013851 1.002716,-2.030363 0.96101,-2.042895 -0.467411,-0.140453 0.22311,-0.424876 -0.307898,-0.491485 -0.419498,-0.05262 -3.652215,0.275557 -4.023545,0.50437 z" /></g><g
       id="g3195"
       transform="translate(-42,-8)"><path
         d="m 72.298172,14.259839 c -2.364264,0.61017 -5.766075,0.964388 -6.682888,2.119755 -0.643654,-0.234919 -1.463333,-0.702563 -2.250107,-0.474793 -1.355202,0.392328 -4.360456,0.184621 -4.131642,2.489548 0.02072,0.208667 0.05771,0.412519 0.146133,0.606278 -1.658167,0.642412 -2.744325,1.735307 -2.744325,2.975485 0,1.984307 3.352584,2.725381 6.388145,3.302138 2.542373,0.483051 10.049214,0.259203 11.570234,0.02542 2.083257,-0.320195 6.559207,-0.87549 6.159328,-2.819087 -0.305084,-1.482853 -1.475773,-3.428949 -3.949425,-3.903704 0.06712,-0.205939 0.08817,-0.417324 0.09744,-0.634253 0.07627,-1.784259 -2.648775,-2.494001 -2.771245,-2.620663 -0.678894,-0.702132 -1.421509,-1.343492 -1.831648,-1.066124 z"
         id="rect4519"
         style="color:#000000;display:inline;overflow:visible;visibility:visible;fill:#e7f0f4;fill-opacity:1;fill-rule:nonzero;stroke:none;stroke-width:1;marker:none;enable-background:accumulate" /><path
         d="m 70.218651,15.930848 c -1.553936,0 -2.840479,0.255087 -3.057667,0.587993 -0.508739,0.725577 -0.612958,0.634769 -1.33861,0.500903 -0.540442,0.341435 -1.37974,0.232706 -1.942198,-0.03274 -0.357867,-0.180017 -1.177724,0.116295 -1.500909,0.116295 -0.469171,0 -1.712874,0.158018 -1.958538,0.290484 -0.01854,0.693937 -0.357069,1.936745 -0.674187,2.476378 -1.820668,1.166553 -1.853666,2.261915 -1.853666,2.261915 0,-0.290387 0.873355,1.078543 1.451651,1.528941 0.578278,0.450388 1.778588,0.792959 2.970724,0.787865 l 11.902657,-0.05085 c 1.192134,-0.0051 2.5888,0.0051 3.138024,-0.431934 0.549222,-0.437026 2.621142,-1.157026 2.621142,-0.91877 0,0.226279 -1.221065,-2.017027 -0.885748,-1.746913 1.350556,1.087933 1.912682,1.485625 -1.789652,-1.194644 l -1.344958,-1.658767 0.08696,-0.479263 h -0.08696 l -0.173885,0.359447 0.08693,-0.359447 H 75.69588 l 0.487131,-0.337824 -0.574087,0.21799 h 0.08693 v -0.119803 l -0.159126,-0.762712 c -1.218675,-1.604686 -0.874482,-0.678833 -1.491153,-0.838712 -0.293937,-0.803386 -0.147791,-0.106325 -0.557733,-0.323193 -0.507243,-0.399262 0.435155,-0.63533 -0.676017,-0.63533 z"
         id="path5952"
         style="color:#000000;display:inline;overflow:visible;visibility:visible;opacity:0.8;fill:none;stroke:url(#linearGradient990);stroke-width:1;stroke-linecap:round;stroke-linejoin:round;stroke-miterlimit:4;stroke-dasharray:none;stroke-dashoffset:0;stroke-opacity:1;marker:none;enable-background:accumulate" /><path
         d="m 67.411746,16.017784 c 0.536259,0.263258 0.525718,0.81463 0.271789,1.434355 -0.02349,0.05734 1.730592,0.903392 1.703173,0.961724 -0.0381,0.08106 -1.859426,-0.625222 -1.904002,-0.543042 -0.62332,1.149151 -0.367313,2.489305 -0.367313,2.489305 m 2.21767,-5.463313 c -1.969518,1.213618 -2.791494,0.340389 -3.784582,1.424843 -0.643654,-0.230652 -1.405597,-0.366318 -2.22468,-0.366318 -0.60128,0 -1.613663,0.332974 -1.613663,0.332974 0.516743,0.308053 0.60471,0.977386 0.513916,1.691483 -0.009,0.07068 2.115869,0.828238 2.103623,0.899488 -0.01679,0.09765 -2.171996,-0.490897 -2.193824,-0.393544 -0.09213,0.410878 -0.223617,0.812086 -0.347559,1.14423 -0.03011,0.08069 1.714638,3.149999 1.691343,3.076441 -0.754638,-2.382966 -4.556907,-2.298919 -1.887416,-2.171801 0,0 0.747861,-4.288361 -0.152542,-4.14777 0,0 -2.092985,-0.0053 -2.092985,0.667208 0,0.20587 -0.120246,1.650788 -0.03183,1.841029 -0.507164,0.192916 -0.960818,0.427211 -1.346246,0.694367 -0.265251,0.183854 -0.498191,0.383269 -0.694023,0.595472 -0.04378,0.04743 2.317834,1.916913 2.277827,1.965587 -0.06895,0.08389 -2.535752,-1.651852 -2.593095,-1.564522 -0.251479,0.382976 -0.515891,1.128118 -0.515891,1.56103 0,1.94826 3.985833,2.452805 6.354981,2.919003 1.313939,0.258554 5.622944,0.490538 5.622944,0.490538 0.336495,-0.716115 0.976727,-1.738381 1.6119,-2.691072 0.03395,-0.05092 -3.313475,-4.703331 0.101753,-0.1521 0.03816,0.05085 0.0708,-0.105292 0.106037,-0.157452 0.824882,-1.220861 0.566332,-1.565792 0.566332,-1.565792 l 0.199877,0.541622 1.488369,1.568634 -1.703202,-1.245739 -2.435116,3.659989 -2.793583,-2.884122 2.913967,2.907254 c 2.423085,-0.02936 6.034246,-0.363281 6.074339,-0.367742 3.707895,-0.412614 6.441313,-1.125608 6.059957,-2.692512 -0.316321,-1.29969 -0.93513,-3.155824 -2.876527,-3.750289 -0.07857,-0.02407 -1.113563,3.992428 -1.113563,3.992428 0,0 0.763717,-4.091841 0.70749,-4.106175 -0.191851,-0.04891 -0.388898,-0.09253 -0.590547,-0.130528 0.06712,-0.202209 0.09744,-0.409545 0.09744,-0.622728 0,-1.184448 -1.235935,-1.844821 -2.874333,-2.445839 -0.05214,-0.01913 -1.282955,2.038619 -1.909189,3.078726 -0.06448,0.107088 2.620102,1.369923 2.451573,1.162394 -1.266455,-1.559535 -3.159694,-0.447647 -3.159694,-0.447647 -0.0206,-0.03211 0.767636,-1.078913 1.209625,-1.974728 0.03174,-0.06434 -6.724417,-2.188423 0.09578,-0.19403 0.04002,0.0117 0.03696,-0.07483 0.05545,-0.11228 0.500717,-1.013851 1.002716,-2.030363 0.96101,-2.042895 -0.467411,-0.140453 0.22311,-0.424876 -0.307898,-0.491485 -0.419498,-0.05262 -3.652215,0.275557 -4.023545,0.50437 z"
         id="path5956"
         style="color:#000000;display:inline;overflow:visible;visibility:visible;opacity:0.4;fill:none;stroke:#25323f;stroke-width:1;stroke-linecap:round;stroke-linejoin:round;stroke-miterlimit:4;stroke-dasharray:none;stroke-dashoffset:0;stroke-opacity:1;marker:none;enable-background:accumulate" /></g><g
       transform="translate(-36,-7.0565511)"
       id="g3231"><path
         style="color:#000000;display:inline;overflow:visible;visibility:visible;fill:#e7f0f4;fill-opacity:1;fill-rule:nonzero;stroke:none;stroke-width:1;marker:none;enable-background:accumulate"
         id="path3233"
         d="m 72.298172,14.259839 c -2.364264,0.61017 -5.766075,0.964388 -6.682888,2.119755 -0.643654,-0.234919 -1.463333,-0.702563 -2.250107,-0.474793 -1.355202,0.392328 -4.360456,0.184621 -4.131642,2.489548 0.02072,0.208667 0.05771,0.412519 0.146133,0.606278 -1.658167,0.642412 -2.744325,1.735307 -2.744325,2.975485 0,1.984307 3.352584,2.725381 6.388145,3.302138 2.542373,0.483051 10.049214,0.259203 11.570234,0.02542 2.083257,-0.320195 6.559207,-0.87549 6.159328,-2.819087 -0.305084,-1.482853 -1.475773,-3.428949 -3.949425,-3.903704 0.06712,-0.205939 0.08817,-0.417324 0.09744,-0.634253 0.07627,-1.784259 -2.648775,-2.494001 -2.771245,-2.620663 -0.678894,-0.702132 -1.421509,-1.343492 -1.831648,-1.066124 z" /><path
         style="color:#000000;display:inline;overflow:visible;visibility:visible;opacity:0.8;fill:none;stroke:url(#linearGradient3038-0);stroke-width:1;stroke-linecap:round;stroke-linejoin:round;stroke-miterlimit:4;stroke-dasharray:none;stroke-dashoffset:0;stroke-opacity:1;marker:none;enable-background:accumulate"
         id="path3235"
         d="m 70.218651,15.930848 c -1.553936,0 -2.840479,0.255087 -3.057667,0.587993 -0.508739,0.725577 -0.612958,0.634769 -1.33861,0.500903 -0.540442,0.341435 -1.37974,0.232706 -1.942198,-0.03274 -0.357867,-0.180017 -1.177724,0.116295 -1.500909,0.116295 -0.469171,0 -1.712874,0.158018 -1.958538,0.290484 -0.01854,0.693937 -0.357069,1.936745 -0.674187,2.476378 -1.820668,1.166553 -1.853666,2.261915 -1.853666,2.261915 0,-0.290387 0.873355,1.078543 1.451651,1.528941 0.578278,0.450388 1.778588,0.792959 2.970724,0.787865 l 11.902657,-0.05085 c 1.192134,-0.0051 2.5888,0.0051 3.138024,-0.431934 0.549222,-0.437026 2.621142,-1.157026 2.621142,-0.91877 0,0.226279 -1.221065,-2.017027 -0.885748,-1.746913 1.350556,1.087933 1.912682,1.485625 -1.789652,-1.194644 l -1.344958,-1.658767 0.08696,-0.479263 h -0.08696 l -0.173885,0.359447 0.08693,-0.359447 H 75.69588 l 0.487131,-0.337824 -0.574087,0.21799 h 0.08693 v -0.119803 l -0.159126,-0.762712 c -1.218675,-1.604686 -0.874482,-0.678833 -1.491153,-0.838712 -0.293937,-0.803386 -0.147791,-0.106325 -0.557733,-0.323193 -0.507243,-0.399262 0.435155,-0.63533 -0.676017,-0.63533 z" /><path
         style="color:#000000;display:inline;overflow:visible;visibility:visible;opacity:0.4;fill:none;stroke:#25323f;stroke-width:1;stroke-linecap:round;stroke-linejoin:round;stroke-miterlimit:4;stroke-dasharray:none;stroke-dashoffset:0;stroke-opacity:1;marker:none;enable-background:accumulate"
         id="path3237"
         d="m 67.411746,16.017784 c 0.536259,0.263258 0.525718,0.81463 0.271789,1.434355 -0.02349,0.05734 1.730592,0.903392 1.703173,0.961724 -0.0381,0.08106 -1.859426,-0.625222 -1.904002,-0.543042 -0.62332,1.149151 -0.367313,2.489305 -0.367313,2.489305 m 2.21767,-5.463313 c -1.969518,1.213618 -2.791494,0.340389 -3.784582,1.424843 -0.643654,-0.230652 -1.405597,-0.366318 -2.22468,-0.366318 -0.60128,0 -1.613663,0.332974 -1.613663,0.332974 0.516743,0.308053 0.60471,0.977386 0.513916,1.691483 -0.009,0.07068 2.115869,0.828238 2.103623,0.899488 -0.01679,0.09765 -2.171996,-0.490897 -2.193824,-0.393544 -0.09213,0.410878 -0.223617,0.812086 -0.347559,1.14423 -0.03011,0.08069 1.714638,3.149999 1.691343,3.076441 -0.754638,-2.382966 -4.556907,-2.298919 -1.887416,-2.171801 0,0 0.747861,-4.288361 -0.152542,-4.14777 0,0 -2.092985,-0.0053 -2.092985,0.667208 0,0.20587 -0.120246,1.650788 -0.03183,1.841029 -0.507164,0.192916 -0.960818,0.427211 -1.346246,0.694367 -0.265251,0.183854 -0.498191,0.383269 -0.694023,0.595472 -0.04378,0.04743 2.317834,1.916913 2.277827,1.965587 -0.06895,0.08389 -2.535752,-1.651852 -2.593095,-1.564522 -0.251479,0.382976 -0.515891,1.128118 -0.515891,1.56103 0,1.94826 3.985833,2.452805 6.354981,2.919003 1.313939,0.258554 5.622944,0.490538 5.622944,0.490538 0.336495,-0.716115 0.976727,-1.738381 1.6119,-2.691072 0.03395,-0.05092 -3.313475,-4.703331 0.101753,-0.1521 0.03816,0.05085 0.0708,-0.105292 0.106037,-0.157452 0.824882,-1.220861 0.566332,-1.565792 0.566332,-1.565792 l 0.199877,0.541622 1.488369,1.568634 -1.703202,-1.245739 -2.435116,3.659989 -2.793583,-2.884122 2.913967,2.907254 c 2.423085,-0.02936 6.034246,-0.363281 6.074339,-0.367742 3.707895,-0.412614 6.441313,-1.125608 6.059957,-2.692512 -0.316321,-1.29969 -0.93513,-3.155824 -2.876527,-3.750289 -0.07857,-0.02407 -1.113563,3.992428 -1.113563,3.992428 0,0 0.763717,-4.091841 0.70749,-4.106175 -0.191851,-0.04891 -0.388898,-0.09253 -0.590547,-0.130528 0.06712,-0.202209 0.09744,-0.409545 0.09744,-0.622728 0,-1.184448 -1.235935,-1.844821 -2.874333,-2.445839 -0.05214,-0.01913 -1.282955,2.038619 -1.909189,3.078726 -0.06448,0.107088 2.620102,1.369923 2.451573,1.162394 -1.266455,-1.559535 -3.159694,-0.447647 -3.159694,-0.447647 -0.0206,-0.03211 0.767636,-1.078913 1.209625,-1.974728 0.03174,-0.06434 -6.724417,-2.188423 0.09578,-0.19403 0.04002,0.0117 0.03696,-0.07483 0.05545,-0.11228 0.500717,-1.013851 1.002716,-2.030363 0.96101,-2.042895 -0.467411,-0.140453 0.22311,-0.424876 -0.307898,-0.491485 -0.419498,-0.05262 -3.652215,0.275557 -4.023545,0.50437 z" /></g></g></svg>
