<?xml version="1.0" encoding="UTF-8" standalone="no"?>
<svg
   width="64"
   height="64"
   version="1"
   id="svg20"
   sodipodi:docname="user-trash.svg"
   inkscape:version="1.2.2 (b0a8486541, 2022-12-01)"
   xmlns:inkscape="http://www.inkscape.org/namespaces/inkscape"
   xmlns:sodipodi="http://sodipodi.sourceforge.net/DTD/sodipodi-0.dtd"
   xmlns="http://www.w3.org/2000/svg"
   xmlns:svg="http://www.w3.org/2000/svg">
  <defs
     id="defs24" />
  <sodipodi:namedview
     id="namedview22"
     pagecolor="#ffffff"
     bordercolor="#000000"
     borderopacity="0.25"
     inkscape:showpageshadow="2"
     inkscape:pageopacity="0.0"
     inkscape:pagecheckerboard="0"
     inkscape:deskcolor="#d1d1d1"
     showgrid="false"
     inkscape:zoom="6.53125"
     inkscape:cx="-13.244019"
     inkscape:cy="28.019139"
     inkscape:window-width="1920"
     inkscape:window-height="1003"
     inkscape:window-x="0"
     inkscape:window-y="0"
     inkscape:window-maximized="1"
     inkscape:current-layer="svg20" />
  <rect
     style="opacity:0.2;stroke-width:2.17845"
     width="52.814816"
     height="53.733334"
     x="5.5925922"
     y="9.2666664"
     rx="3.5225186"
     ry="3.1599333"
     id="rect2" />
  <rect
     style="fill:#8e8e8e;stroke-width:2.17845"
     width="52.814816"
     height="53.733334"
     x="5.5925922"
     y="7.1999998"
     rx="3.5225186"
     ry="3.1599333"
     id="rect4" />
  <rect
     style="fill:#9f9f9f;stroke-width:2.17845"
     width="20.666668"
     height="6.2000003"
     x="21.666668"
     y="0.99999976"
     id="rect6" />
  <path
     style="opacity:0.3;fill:none;stroke:#000000;stroke-width:6.53537;stroke-linecap:round"
     d="m 18.222566,24.766665 c 0,0 -3.44e-4,6.716667 -3.44e-4,12.916667 0,6.199999 3.44e-4,11.883333 3.44e-4,11.883333"
     id="path8" />
  <rect
     style="opacity:0.2;stroke-width:2.17845"
     width="62"
     height="12.400001"
     x="0.99999982"
     y="5.1333327"
     rx="3.4444444"
     ry="3.1000001"
     id="rect10" />
  <rect
     style="fill:#9f9f9f;stroke-width:2.17845"
     width="62"
     height="12.400001"
     x="0.99999982"
     y="3.0666664"
     rx="3.4444444"
     ry="3.1000001"
     id="rect12" />
  <path
     style="opacity:0.3;fill:none;stroke:#000000;stroke-width:6.53537;stroke-linecap:round"
     d="m 32,24.766665 v 24.8"
     id="path14" />
  <path
     style="opacity:0.3;fill:none;stroke:#000000;stroke-width:6.53537;stroke-linecap:round"
     d="m 45.778122,24.766665 c 0,0 -3.45e-4,6.716667 -3.45e-4,12.916667 0,6.199999 3.45e-4,11.883333 3.45e-4,11.883333"
     id="path16" />
  <path
     style="opacity:0.2;fill:#ffffff;stroke-width:2.17845"
     d="m 4.4444443,3.0666664 c -1.9082223,0 -3.4444445,1.3826 -3.4444445,3.0999999 v 2.0666666 c 0,-1.7173999 1.5362222,-3.0999999 3.4444445,-3.0999999 H 59.555556 C 61.463778,5.133333 63,6.515933 63,8.2333329 V 6.1666663 C 63,4.4492664 61.463778,3.0666664 59.555556,3.0666664 Z"
     id="path18" />
</svg>
