<?xml version="1.0" encoding="UTF-8" standalone="no"?>
<svg
   width="64"
   height="64"
   version="1"
   id="svg20"
   sodipodi:docname="user-trash-full.svg"
   inkscape:version="1.2.2 (b0a8486541, 2022-12-01)"
   xmlns:inkscape="http://www.inkscape.org/namespaces/inkscape"
   xmlns:sodipodi="http://sodipodi.sourceforge.net/DTD/sodipodi-0.dtd"
   xmlns="http://www.w3.org/2000/svg"
   xmlns:svg="http://www.w3.org/2000/svg">
  <defs
     id="defs24" />
  <sodipodi:namedview
     id="namedview22"
     pagecolor="#ffffff"
     bordercolor="#000000"
     borderopacity="0.25"
     inkscape:showpageshadow="2"
     inkscape:pageopacity="0.0"
     inkscape:pagecheckerboard="0"
     inkscape:deskcolor="#d1d1d1"
     showgrid="false"
     inkscape:zoom="9.2365823"
     inkscape:cx="39.787444"
     inkscape:cy="28.798531"
     inkscape:window-width="1920"
     inkscape:window-height="1003"
     inkscape:window-x="0"
     inkscape:window-y="0"
     inkscape:window-maximized="1"
     inkscape:current-layer="svg20" />
  <g
     id="g262"
     transform="matrix(2.2962963,0,0,2.0666667,-5.8888889,-1.0666672)">
    <path
       style="opacity:0.2"
       d="m 6.75,4.75 h 19.5 c 0.831,0 1.5,0.6887355 1.5,1.54425 C 27.75,6.29425 30,13 30,18.25 30,23.5 28.5,31 26.25,31 H 6.75 C 4.5,31 3,23.5 3,18.25 3,13 5.25,6.29425 5.25,6.29425 5.4082251,5.4534944 5.919,4.75 6.75,4.75 Z"
       id="path2" />
    <rect
       style="fill:#9f9f9f"
       width="9"
       height="3"
       x="12"
       y="1"
       id="rect4" />
    <path
       style="fill:#8e8e8e"
       d="m 6.75,3.75 h 19.5 c 0.831,0 1.5,0.6887355 1.5,1.54425 C 27.75,5.29425 30,12 30,17.25 30,22.5 28.5,30 26.25,30 H 6.75 C 4.5,30 3,22.5 3,17.25 3,12 5.25,5.29425 5.25,5.29425 5.4082251,4.4534944 5.919,3.75 6.75,3.75 Z"
       id="path6" />
    <path
       style="opacity:0.3;fill:none;stroke:#000000;stroke-width:3;stroke-linecap:round"
       d="m 10.50015,12.5 c 0,0 -1.00015,3.25 -1.00015,6.25 0,3 1.00015,5.75 1.00015,5.75"
       id="path8" />
    <rect
       style="opacity:0.2"
       width="27"
       height="6"
       x="3"
       y="3"
       rx="1.5"
       ry="1.5"
       id="rect10" />
    <rect
       style="fill:#9f9f9f"
       width="27"
       height="6"
       x="3"
       y="2"
       rx="1.5"
       ry="1.5"
       id="rect12" />
    <path
       style="opacity:0.3;fill:none;stroke:#000000;stroke-width:3;stroke-linecap:round"
       d="m 16.5,12.5 v 12"
       id="path14" />
    <path
       style="opacity:0.3;fill:none;stroke:#000000;stroke-width:3;stroke-linecap:round"
       d="m 22.50015,12.5 c 0,0 0.99985,3.25 0.99985,6.25 0,3 -0.99985,5.75 -0.99985,5.75"
       id="path16" />
    <path
       style="opacity:0.2;fill:#ffffff"
       d="M 4.5,2 C 3.669,2 3,2.669 3,3.5 v 1 C 3,3.669 3.669,3 4.5,3 h 24 C 29.331,3 30,3.669 30,4.5 v -1 C 30,2.669 29.331,2 28.5,2 Z"
       id="path18" />
  </g>
</svg>
