<?xml version="1.0" encoding="UTF-8" standalone="no"?>
<svg
   width="16"
   height="16"
   version="1.1"
   viewBox="0 0 4.23325 4.23325"
   id="svg29"
   sodipodi:docname="preferences-system.svg"
   inkscape:version="1.2.2 (b0a8486541, 2022-12-01)"
   xmlns:inkscape="http://www.inkscape.org/namespaces/inkscape"
   xmlns:sodipodi="http://sodipodi.sourceforge.net/DTD/sodipodi-0.dtd"
   xmlns="http://www.w3.org/2000/svg"
   xmlns:svg="http://www.w3.org/2000/svg"
   xmlns:rdf="http://www.w3.org/1999/02/22-rdf-syntax-ns#"
   xmlns:cc="http://creativecommons.org/ns#"
   xmlns:dc="http://purl.org/dc/elements/1.1/">
  <sodipodi:namedview
     id="namedview31"
     pagecolor="#ffffff"
     bordercolor="#000000"
     borderopacity="0.25"
     inkscape:showpageshadow="2"
     inkscape:pageopacity="0.0"
     inkscape:pagecheckerboard="0"
     inkscape:deskcolor="#d1d1d1"
     showgrid="false"
     inkscape:zoom="13.09375"
     inkscape:cx="21.651551"
     inkscape:cy="28.257757"
     inkscape:window-width="1920"
     inkscape:window-height="1003"
     inkscape:window-x="0"
     inkscape:window-y="0"
     inkscape:window-maximized="1"
     inkscape:current-layer="svg29" />
  <defs
     id="defs17">
    <linearGradient
       id="linearGradient1465"
       x1="53.237"
       x2="66.207001"
       y1="14.657"
       y2="27.627001"
       gradientTransform="matrix(0.75,0,0,0.75,-37.383,-2.5998)"
       gradientUnits="userSpaceOnUse">
      <stop
         stop-color="#869099"
         offset="0"
         id="stop2" />
      <stop
         stop-color="#4c6068"
         offset="1"
         id="stop4" />
    </linearGradient>
    <linearGradient
       id="linearGradient1481"
       x1="55.678001"
       x2="61.883999"
       y1="6.3140001"
       y2="12.52"
       gradientTransform="matrix(0.75,0,0,0.75,-38.244,4.8801)"
       gradientUnits="userSpaceOnUse">
      <stop
         stop-color="#d2d7dc"
         offset="0"
         id="stop7" />
      <stop
         stop-color="#fff"
         offset="1"
         id="stop9" />
    </linearGradient>
    <linearGradient
       id="linearGradient1491"
       x1="55.678001"
       x2="61.883999"
       y1="6.3140001"
       y2="12.52"
       gradientTransform="matrix(0.53097,0,0,0.53097,-25.163,7.1429)"
       gradientUnits="userSpaceOnUse">
      <stop
         stop-color="#006ec8"
         offset="0"
         id="stop12" />
      <stop
         stop-color="#0a327d"
         offset="1"
         id="stop14" />
    </linearGradient>
  </defs>
  <metadata
     id="metadata19">
    <rdf:RDF>
      <cc:Work
         rdf:about="">
        <dc:format>image/svg+xml</dc:format>
        <dc:type
           rdf:resource="http://purl.org/dc/dcmitype/StillImage" />
      </cc:Work>
    </rdf:RDF>
  </metadata>
  <g
     transform="matrix(0.33421683,0,0,0.33374829,-0.07168679,-2.0980961)"
     stroke-width="0.75"
     id="g27">
    <path
       d="M 8.1225,7.0475 A 0.37642,0.36696 0 0 0 8.085139,7.0511 0.37642,0.36696 0 0 0 8.048149,7.05762 0.37642,0.36696 0 0 0 8.011901,7.06782 0.37642,0.36696 0 0 0 7.977153,7.081665 0.37642,0.36696 0 0 0 7.943898,7.099147 0.37642,0.36696 0 0 0 7.932318,7.105667 0.37642,0.36696 0 0 0 7.901305,7.126787 0.37642,0.36696 0 0 0 7.87291,7.150465 0.37642,0.36696 0 0 0 7.846757,7.177052 0.37642,0.36696 0 0 0 7.823589,7.20583 0.37642,0.36696 0 0 0 7.803407,7.236791 0.37642,0.36696 0 0 0 7.7866,7.269574 0.37642,0.36696 0 0 0 7.773145,7.303805 0.37642,0.36696 0 0 0 7.763425,7.339505 1.2647,1.233 0 0 1 7.746243,7.408348 1.2647,1.233 0 0 1 7.706635,7.525278 1.2647,1.233 0 0 1 7.655447,7.638188 1.2647,1.233 0 0 1 7.592679,7.745278 1.2647,1.233 0 0 1 7.519823,7.845808 1.2647,1.233 0 0 1 7.436505,7.938689 1.2647,1.233 0 0 1 7.344217,8.022832 1.2647,1.233 0 0 1 7.244087,8.097869 1.2647,1.233 0 0 1 7.136487,8.162699 1.2647,1.233 0 0 1 7.022907,8.216609 1.2647,1.233 0 0 1 6.904097,8.259224 1.2647,1.233 0 0 1 6.781917,8.290185 1.2647,1.233 0 0 1 6.656747,8.308762 1.2647,1.233 0 0 1 6.530457,8.315582 1.2647,1.233 0 0 1 6.462829,8.313402 1.2647,1.233 0 0 1 6.336909,8.299945 1.2647,1.233 0 0 1 6.213229,8.274812 1.2647,1.233 0 0 1 6.092919,8.237297 1.2647,1.233 0 0 1 5.976719,8.188487 1.2647,1.233 0 0 1 5.866119,8.128382 1.2647,1.233 0 0 1 5.762619,8.058092 1.2647,1.233 0 0 1 5.666596,7.977954 1.2647,1.233 0 0 1 5.579168,7.888711 1.2647,1.233 0 0 1 5.501452,7.791818 1.2647,1.233 0 0 1 5.433824,7.687638 1.2647,1.233 0 0 1 5.377409,7.577278 1.2647,1.233 0 0 1 5.332574,7.461818 1.2647,1.233 0 0 1 5.299693,7.343068 0.37642,0.36696 0 0 0 5.298193,7.335718 0.37642,0.36696 0 0 0 5.288106,7.300377 0.37642,0.36696 0 0 0 5.274666,7.266147 0.37642,0.36696 0 0 0 5.257859,7.233364 0.37642,0.36696 0 0 0 5.237309,7.202403 0.37642,0.36696 0 0 0 5.214141,7.173625 0.37642,0.36696 0 0 0 5.187989,7.147038 0.37642,0.36696 0 0 0 5.159218,7.123361 0.37642,0.36696 0 0 0 5.128205,7.102601 0.36324,0.35412 0 0 0 5.111015,7.092771 0.36324,0.35412 0 0 0 5.078135,7.077831 0.36324,0.35412 0 0 0 5.043769,7.065809 0.36324,0.35412 0 0 0 5.008654,7.057439 0.36324,0.35412 0 0 0 4.972788,7.052709 0.36324,0.35412 0 0 0 4.93618,7.050909 a 0.36324,0.35412 0 0 0 -0.036241,0.00217 0.36324,0.35412 0 0 0 -0.035865,0.00585 0.36324,0.35412 0 0 0 -0.034748,0.00911 5.9474,5.798 0 0 0 -0.34337,0.11219 5.9474,5.798 0 0 0 -0.54662,0.22802 5.9474,5.798 0 0 0 -0.52047,0.2801 5.9474,5.798 0 0 0 -0.48909,0.32928 5.9474,5.798 0 0 0 -0.45321,0.37517 0.37642,0.36696 0 0 0 -0.00562,0.00472 A 0.37642,0.36696 0 0 0 2.445535,8.42485 0.37642,0.36696 0 0 0 2.423118,8.454716 0.37642,0.36696 0 0 0 2.404061,8.486037 0.37642,0.36696 0 0 0 2.387996,8.51882 0.37642,0.36696 0 0 0 2.375291,8.553418 a 0.37642,0.36696 0 0 0 -0.00897,0.0357 0.37642,0.36696 0 0 0 -0.00495,0.036421 0.37642,0.36696 0 0 0 -0.0015,0.036788 0.37642,0.36696 0 0 0 0,0.00585 0.37642,0.36696 0 0 0 0.00225,0.036788 0.37642,0.36696 0 0 0 0.00607,0.036068 0.37642,0.36696 0 0 0 0.00934,0.035341 0.37642,0.36696 0 0 0 0.01344,0.034598 0.37642,0.36696 0 0 0 0.01644,0.032791 0.37642,0.36696 0 0 0 0.020182,0.03096 0.37642,0.36696 0 0 0 0.023168,0.029138 0.37642,0.36696 0 0 0 0.025785,0.026588 1.2572,1.2257 0 0 1 0.013087,0.011655 1.2572,1.2257 0 0 1 0.087428,0.088148 1.2572,1.2257 0 0 1 0.077716,0.096158 1.2572,1.2257 0 0 1 0.067628,0.10345 1.2572,1.2257 0 0 1 0.056783,0.10928 1.2572,1.2257 0 0 1 0.04521,0.11438 1.2572,1.2257 0 0 1 0.033256,0.11801 1.2572,1.2257 0 0 1 0.020925,0.12093 1.2572,1.2257 0 0 1 0.00859,0.12203 1.2572,1.2257 0 0 1 -0.00382,0.12239 1.2572,1.2257 0 0 1 -0.01644,0.12166 1.2572,1.2257 0 0 1 -0.029146,0.11911 1.2572,1.2257 0 0 1 -0.040725,0.11583 1.2572,1.2257 0 0 1 -0.05268,0.11146 1.2572,1.2257 0 0 1 -0.063893,0.10563 1.2572,1.2257 0 0 1 -0.073972,0.09871 1.2572,1.2257 0 0 1 -0.084068,0.09107 1.2572,1.2257 0 0 1 -0.092663,0.08268 1.2572,1.2257 0 0 1 -0.10088,0.07285 1.2572,1.2257 0 0 1 -0.10798,0.06302 1.2572,1.2257 0 0 1 -0.11396,0.05209 1.2572,1.2257 0 0 1 -0.11844,0.04079 1.2572,1.2257 0 0 1 -0.12218,0.02914 1.2572,1.2257 0 0 1 -0.12442,0.01676 1.2572,1.2257 0 0 1 -0.12554,0.0047 1.2572,1.2257 0 0 1 -0.1252,-0.0073 1.2572,1.2257 0 0 1 -0.12404,-0.01967 1.2572,1.2257 0 0 1 -0.12143,-0.03169 0.37642,0.36696 0 0 0 -0.017932,-0.005 0.37642,0.36696 0 0 0 -0.036608,-0.0076 0.37642,0.36696 0 0 0 -0.03774,-0.0044 0.37642,0.36696 0 0 0 -0.037358,-3.65e-4 0.37642,0.36696 0 0 0 -0.037741,0.0033 0.37642,0.36696 0 0 0 -0.03699,0.0068 0.37642,0.36696 0 0 0 -0.035866,0.01019 0.37642,0.36696 0 0 0 -0.034748,0.01384 0.37642,0.36696 0 0 0 -0.033255,0.01713 0.37642,0.36696 0 0 0 -0.031388,0.02041 0.37642,0.36696 0 0 0 -0.029146,0.02332 0.37642,0.36696 0 0 0 -0.026528,0.02586 0.37642,0.36696 0 0 0 -0.023902,0.02841 0.37642,0.36696 0 0 0 -0.02055,0.0306 0.37642,0.36696 0 0 0 -0.017565,0.03242 0.37642,0.36696 0 0 0 -0.014197,0.03424 0.37642,0.36696 0 0 0 -0.010462,0.03497 5.7893,5.6439 0 0 0 -0.085565,0.39886 5.7893,5.6439 0 0 0 -0.069495,0.56021 5.7893,5.6439 0 0 0 -0.01158,0.56385 5.7893,5.6439 0 0 0 0.046328,0.5624 5.7893,5.6439 0 0 0 0.10349,0.55511 0.37642,0.36696 0 0 0 0.00412,0.01675 0.37642,0.36696 0 0 0 0.011962,0.03497 0.37642,0.36696 0 0 0 0.015322,0.03351 0.37642,0.36696 0 0 0 0.018682,0.03169 0.37642,0.36696 0 0 0 0.022042,0.02987 0.37642,0.36696 0 0 0 0.02466,0.02768 0.37642,0.36696 0 0 0 0.027646,0.02514 0.37642,0.36696 0 0 0 0.029881,0.02221 0.37642,0.36696 0 0 0 0.03177,0.01931 0.37642,0.36696 0 0 0 0.033998,0.01566 0.37642,0.36696 0 0 0 0.035498,0.01276 0.37642,0.36696 0 0 0 0.036241,0.0091 0.37642,0.36696 0 0 0 0.037365,0.0055 0.37642,0.36696 0 0 0 0.037358,0.0018 0.37642,0.36696 0 0 0 0.03774,-0.0018 0.37642,0.36696 0 0 0 0.037366,-0.0055 0.37642,0.36696 0 0 0 0.036248,-0.0087 1.2572,1.2257 0 0 1 0.019057,-0.0059 1.2572,1.2257 0 0 1 0.12218,-0.02878 1.2572,1.2257 0 0 1 0.12442,-0.01676 1.2572,1.2257 0 0 1 0.12554,-0.0044 1.2572,1.2257 0 0 1 0.12554,0.0076 1.2572,1.2257 0 0 1 0.12404,0.02003 1.2572,1.2257 0 0 1 0.12143,0.03169 1.2572,1.2257 0 0 1 0.11732,0.04335 1.2572,1.2257 0 0 1 0.11246,0.055 1.2572,1.2257 0 0 1 0.10649,0.0652 1.2572,1.2257 0 0 1 0.099008,0.0754 1.2572,1.2257 0 0 1 0.090796,0.08487 1.2572,1.2257 0 0 1 0.081826,0.09288 1.2572,1.2257 0 0 1 0.071738,0.10053 1.2572,1.2257 0 0 1 0.0609,0.10709 1.2572,1.2257 0 0 1 0.050063,0.11255 1.2572,1.2257 0 0 1 0.037733,0.11656 1.2572,1.2257 0 0 1 0.026153,0.1202 1.2572,1.2257 0 0 1 0.01344,0.12166 1.2572,1.2257 0 0 1 0.00113,0.12239 1.2572,1.2257 0 0 1 -0.01158,0.12203 1.2572,1.2257 0 0 1 -0.024285,0.1202 1.2572,1.2257 0 0 1 -0.035858,0.11765 1.2572,1.2257 0 0 1 -0.048203,0.11291 1.2572,1.2257 0 0 1 -0.059408,0.10818 1.2572,1.2257 0 0 1 -0.070245,0.10163 1.2572,1.2257 0 0 1 -0.079957,0.09434 1.2572,1.2257 0 0 1 -0.089671,0.08596 0.37642,0.36696 0 0 0 -0.0075,0.0065 0.37642,0.36696 0 0 0 -0.025778,0.02659 0.37642,0.36696 0 0 0 -0.023542,0.02878 0.37642,0.36696 0 0 0 -0.020175,0.03096 0.37642,0.36696 0 0 0 -0.016815,0.03242 0.37642,0.36696 0 0 0 -0.01344,0.03423 0.37642,0.36696 0 0 0 -0.010087,0.0357 0.37642,0.36696 0 0 0 -0.00637,0.03606 0.37642,0.36696 0 0 0 -0.00225,0.03642 0.37642,0.36696 0 0 0 0,0.0095 0.37642,0.36696 0 0 0 0.00225,0.03679 0.37642,0.36696 0 0 0 0.00608,0.03607 0.37642,0.36696 0 0 0 0.00934,0.03534 0.37642,0.36696 0 0 0 0.013455,0.0346 0.37642,0.36696 0 0 0 0.01644,0.03278 0.37642,0.36696 0 0 0 0.020175,0.03096 0.37642,0.36696 0 0 0 0.023167,0.02914 0.37642,0.36696 0 0 0 0.025786,0.02659 5.9794,5.8292 0 0 0 0.2507,0.22219 5.9794,5.8292 0 0 0 0.47227,0.35696 5.9794,5.8292 0 0 0 0.50627,0.30961 5.9794,5.8292 0 0 0 0.53579,0.25825 5.9794,5.8292 0 0 0 0.55932,0.20507 0.37642,0.36696 0 0 0 0.010462,0.0033 0.37642,0.36696 0 0 0 0.036615,0.008 0.37642,0.36696 0 0 0 0.037358,0.0044 0.37642,0.36696 0 0 0 0.037366,0.0011 0.37642,0.36696 0 0 0 0.03774,-0.0029 0.37642,0.36696 0 0 0 0.03699,-0.0065 0.37642,0.36696 0 0 0 0.036248,-0.0098 0.37642,0.36696 0 0 0 0.034748,-0.01347 0.37642,0.36696 0 0 0 0.03363,-0.01676 0.37642,0.36696 0 0 0 0.013447,-0.0074 0.37642,0.36696 0 0 0 0.031388,-0.02041 0.37642,0.36696 0 0 0 0.029146,-0.02295 0.37642,0.36696 0 0 0 0.026527,-0.02585 0.37642,0.36696 0 0 0 0.024286,-0.02841 0.37642,0.36696 0 0 0 0.02055,-0.03023 0.37642,0.36696 0 0 0 0.017932,-0.03242 0.37642,0.36696 0 0 0 0.014197,-0.03423 0.37642,0.36696 0 0 0 0.010845,-0.03497 1.2629,1.2311 0 0 1 0.01344,-0.05354 1.2629,1.2311 0 0 1 0.039608,-0.11693 1.2629,1.2311 0 0 1 0.05118,-0.11255 1.2629,1.2311 0 0 1 0.0624,-0.10672 1.2629,1.2311 0 0 1 0.072856,-0.10053 1.2629,1.2311 0 0 1 0.082943,-0.09252 1.2629,1.2311 0 0 1 0.091913,-0.0845 1.2629,1.2311 0 0 1 0.10051,-0.07467 1.2629,1.2311 0 0 1 0.10724,-0.06483 1.2629,1.2311 0 0 1 0.11358,-0.05391 1.2629,1.2311 0 0 1 0.11844,-0.04262 1.2629,1.2311 0 0 1 0.12218,-0.03096 1.2629,1.2311 0 0 1 0.12479,-0.01857 1.2629,1.2311 0 0 1 0.12592,-0.0068 h 0.014947 a 1.2629,1.2311 0 0 1 0.071738,0.0033 1.2629,1.2311 0 0 1 0.12554,0.01494 1.2629,1.2311 0 0 1 0.12293,0.02695 1.2629,1.2311 0 0 1 0.11993,0.03861 1.2629,1.2311 0 0 1 0.11508,0.05063 1.2629,1.2311 0 0 1 0.10947,0.06119 1.2629,1.2311 0 0 1 0.10275,0.07175 1.2629,1.2311 0 0 1 0.094898,0.08122 1.2629,1.2311 0 0 1 0.085936,0.08997 1.2629,1.2311 0 0 1 0.076224,0.09798 1.2629,1.2311 0 0 1 0.066128,0.1049 1.2629,1.2311 0 0 1 0.054548,0.1111 1.2629,1.2311 0 0 1 0.043335,0.11547 1.2629,1.2311 0 0 1 0.031013,0.11911 0.37642,0.36696 0 0 0 0.00225,0.01019 0.37642,0.36696 0 0 0 0.010087,0.03534 0.37642,0.36696 0 0 0 0.013815,0.03423 0.37642,0.36696 0 0 0 0.01719,0.03242 0.37642,0.36696 0 0 0 0.020175,0.03096 0.37642,0.36696 0 0 0 0.023543,0.02878 0.37642,0.36696 0 0 0 0.026527,0.02623 0.37642,0.36696 0 0 0 0.028771,0.02368 0.37642,0.36696 0 0 0 0.031013,0.02041 0.37642,0.36696 0 0 0 0.01719,0.0098 0.37642,0.36696 0 0 0 0.034006,0.01602 0.37642,0.36696 0 0 0 0.035116,0.01276 0.37642,0.36696 0 0 0 0.036608,0.0091 0.37642,0.36696 0 0 0 0.03699,0.0055 0.37642,0.36696 0 0 0 0.037741,0.0022 0.37642,0.36696 0 0 0 0.034366,-0.0037 0.37642,0.36696 0 0 0 0.036991,-0.0076 0.37642,0.36696 0 0 0 0.035861,-0.01093 5.9568,5.8072 0 0 0 0.33739,-0.10418 5.9568,5.8072 0 0 0 0.55148,-0.21928 5.9568,5.8072 0 0 0 0.52644,-0.27137 5.9568,5.8072 0 0 0 0.49581,-0.32163 5.9568,5.8072 0 0 0 0.46032,-0.36788 0.37642,0.36696 0 0 0 0.0078,-0.0073 0.37642,0.36696 0 0 0 0.02615,-0.02659 0.37642,0.36696 0 0 0 0.02279,-0.02914 0.37642,0.36696 0 0 0 0.01981,-0.03096 0.37642,0.36696 0 0 0 0.01682,-0.03316 0.37642,0.36696 0 0 0 0.01308,-0.03423 0.37642,0.36696 0 0 0 0.0097,-0.03534 0.37642,0.36696 0 0 0 0.0061,-0.03642 0.37642,0.36696 0 0 0 0.0019,-0.03643 0.37642,0.36696 0 0 0 0,-0.01201 0.37642,0.36696 0 0 0 -0.003,-0.03642 0.37642,0.36696 0 0 0 -0.0068,-0.03606 0.37642,0.36696 0 0 0 -0.01046,-0.03534 0.37642,0.36696 0 0 0 -0.01382,-0.03423 0.37642,0.36696 0 0 0 -0.01757,-0.03242 0.37642,0.36696 0 0 0 -0.02055,-0.0306 0.37642,0.36696 0 0 0 -0.02354,-0.02841 0.37642,0.36696 0 0 0 -0.02653,-0.02623 1.2591,1.2275 0 0 1 -0.02728,-0.02515 1.2591,1.2275 0 0 1 -0.08518,-0.09033 1.2591,1.2275 0 0 1 -0.07547,-0.09781 1.2591,1.2275 0 0 1 -0.06538,-0.1049 1.2591,1.2275 0 0 1 -0.05417,-0.11073 1.2591,1.2275 0 0 1 -0.04258,-0.11546 1.2591,1.2275 0 0 1 -0.03026,-0.11911 1.2591,1.2275 0 0 1 -0.01831,-0.12166 1.2591,1.2275 0 0 1 -0.0056,-0.12239 1.2591,1.2275 0 0 1 0.0071,-0.12275 1.2591,1.2275 0 0 1 0.01943,-0.12093 1.2591,1.2275 0 0 1 0.03176,-0.11875 1.2591,1.2275 0 0 1 0.04408,-0.1151 1.2591,1.2275 0 0 1 0.0553,-0.11037 1.2591,1.2275 0 0 1 0.06613,-0.10418 1.2591,1.2275 0 0 1 0.07696,-0.09725 1.2591,1.2275 0 0 1 0.08631,-0.08923 1.2591,1.2275 0 0 1 0.0949,-0.0805 1.2591,1.2275 0 0 1 0.10275,-0.07066 1.2591,1.2275 0 0 1 0.10947,-0.06046 1.2591,1.2275 0 0 1 0.11508,-0.04954 1.2591,1.2275 0 0 1 0.11956,-0.03824 1.2591,1.2275 0 0 1 0.1233,-0.02623 1.2591,1.2275 0 0 1 0.12479,-0.0142 1.2591,1.2275 0 0 1 0.12591,-0.0018 1.2591,1.2275 0 0 1 0.12554,0.01057 1.2591,1.2275 0 0 1 0.12368,0.02258 1.2591,1.2275 0 0 1 0.12068,0.03423 0.37642,0.36696 0 0 0 0.0112,0.0037 0.37642,0.36696 0 0 0 0.03625,0.0095 0.37642,0.36696 0 0 0 0.03699,0.0059 0.37642,0.36696 0 0 0 0.03773,0.0022 0.37642,0.36696 0 0 0 0.03736,-0.0015 0.37642,0.36696 0 0 0 0.03736,-0.0051 0.37642,0.36696 0 0 0 0.03661,-0.0087 0.37642,0.36696 0 0 0 0.0355,-0.01202 0.37642,0.36696 0 0 0 0.034,-0.01566 0.37642,0.36696 0 0 0 0.01046,-0.0058 0.37642,0.36696 0 0 0 0.03177,-0.01966 0.37642,0.36696 0 0 0 0.02952,-0.02295 0.37642,0.36696 0 0 0 0.0269,-0.02548 0.37642,0.36696 0 0 0 0.02429,-0.02805 0.37642,0.36696 0 0 0 0.02131,-0.03023 0.37642,0.36696 0 0 0 0.01831,-0.03205 0.37642,0.36696 0 0 0 0.01458,-0.03387 0.37642,0.36696 0 0 0 0.0112,-0.03497 5.8551,5.7081 0 0 0 0.08706,-0.38173 5.8551,5.7081 0 0 0 0.07846,-0.56531 5.8551,5.7081 0 0 0 0.02018,-0.57041 5.8551,5.7081 0 0 0 -0.03848,-0.56932 5.8551,5.7081 0 0 0 -0.0964,-0.56276 0.37642,0.36696 0 0 0 -0.0026,-0.01057 0.37642,0.36696 0 0 0 -0.01046,-0.03533 0.37642,0.36696 0 0 0 -0.01419,-0.03387 0.37642,0.36696 0 0 0 -0.01793,-0.03242 0.37642,0.36696 0 0 0 -0.02055,-0.0306 0.37642,0.36696 0 0 0 -0.0239,-0.02841 0.37642,0.36696 0 0 0 -0.0269,-0.02585 0.37642,0.36696 0 0 0 -0.02914,-0.02295 0.37642,0.36696 0 0 0 -0.03139,-0.02041 0.37642,0.36696 0 0 0 -0.0093,-0.005 0.37642,0.36696 0 0 0 -0.034,-0.01566 0.37642,0.36696 0 0 0 -0.03511,-0.01276 0.37642,0.36696 0 0 0 -0.03661,-0.0087 0.37642,0.36696 0 0 0 -0.03699,-0.0055 0.37642,0.36696 0 0 0 -0.03773,-0.0018 0.37642,0.36696 0 0 0 -0.03774,0.0018 0.37642,0.36696 0 0 0 -0.03699,0.0055 0.37642,0.36696 0 0 0 -0.03662,0.0095 1.2591,1.2275 0 0 1 -0.0609,0.01748 1.2591,1.2275 0 0 1 -0.12293,0.02548 1.2591,1.2275 0 0 1 -0.12517,0.01385 1.2591,1.2275 0 0 1 -0.12591,0.0015 1.2591,1.2275 0 0 1 -0.12527,-0.01093 1.2591,1.2275 0 0 1 -0.12368,-0.02295 1.2591,1.2275 0 0 1 -0.12068,-0.03497 1.2591,1.2275 0 0 1 -0.11657,-0.04626 1.2591,1.2275 0 0 1 -0.11097,-0.05756 1.2591,1.2275 0 0 1 -0.10499,-0.06811 1.2591,1.2275 0 0 1 -0.09714,-0.07795 1.2591,1.2275 0 0 1 -0.08855,-0.08705 1.2591,1.2275 0 0 1 -0.07958,-0.09543 1.2591,1.2275 0 0 1 -0.06912,-0.10235 1.2591,1.2275 0 0 1 -0.05828,-0.10891 1.2591,1.2275 0 0 1 -0.04707,-0.11364 1.2591,1.2275 0 0 1 -0.03512,-0.11802 1.2591,1.2275 0 0 1 -0.02279,-0.12056 1.2591,1.2275 0 0 1 -0.01009,-0.12239 1.2591,1.2275 0 0 1 0.0019,-0.12239 1.2591,1.2275 0 0 1 0.01495,-0.12203 1.2591,1.2275 0 0 1 0.02728,-0.11984 1.2591,1.2275 0 0 1 0.03923,-0.11656 1.2591,1.2275 0 0 1 0.05119,-0.11219 1.2591,1.2275 0 0 1 0.06203,-0.10636 1.2591,1.2275 0 0 1 0.07285,-0.10017 1.2591,1.2275 0 0 1 0.08295,-0.092521 1.2591,1.2275 0 0 1 0.09191,-0.083776 0.38771,0.37797 0 0 0 0.0023,-0.00218 0.38771,0.37797 0 0 0 0.02764,-0.026227 0.38771,0.37797 0 0 0 0.02466,-0.029146 0.38771,0.37797 0 0 0 0.02167,-0.031328 0.38771,0.37797 0 0 0 0.01831,-0.033143 0.38771,0.37797 0 0 0 0.01495,-0.034973 0.38771,0.37797 0 0 0 0.0112,-0.036421 0.38771,0.37797 0 0 0 0.0075,-0.036788 0.38771,0.37797 0 0 0 0.0034,-0.037876 0.37642,0.36696 0 0 0 3.77e-4,-0.00948 0.37642,0.36696 0 0 0 -0.0019,-0.036788 0.37642,0.36696 0 0 0 -0.0056,-0.036428 0.37642,0.36696 0 0 0 -0.009,-0.035333 0.37642,0.36696 0 0 0 -0.01271,-0.034598 0.37642,0.36696 0 0 0 -0.01643,-0.033143 0.37642,0.36696 0 0 0 -0.01942,-0.031328 0.37642,0.36696 0 0 0 -0.02279,-0.029137 0.37642,0.36696 0 0 0 -0.02559,-0.027309 5.9813,5.8311 0 0 0 -0.36504,-0.32053 5.9813,5.8311 0 0 0 -0.479,-0.34895 5.9813,5.8311 0 0 0 -0.51225,-0.3005 5.9813,5.8311 0 0 0 -0.54027,-0.24914 5.9813,5.8311 0 0 0 -0.56344,-0.1956 A 0.37642,0.36696 0 0 0 8.234155,7.060002 0.37642,0.36696 0 0 0 8.197544,7.052362 0.37642,0.36696 0 0 0 8.160173,7.048392 0.37642,0.36696 0 0 0 8.122442,7.048029 Z M 2.011,13.4269 A 2.0101,1.9596 0 0 1 2.20566,13.47607 2.0101,1.9596 0 0 1 2.39435,13.54382 2.0101,1.9596 0 0 0 2.20566,13.47607 2.0101,1.9596 0 0 0 2.011,13.4269 Z m 0.56381,0.20252 a 2.0101,1.9596 0 0 1 0.17112,0.10272 2.0101,1.9596 0 0 1 0.15954,0.11911 2.0101,1.9596 0 0 0 -0.15954,-0.11911 2.0101,1.9596 0 0 0 -0.17112,-0.10272 z m 4.3188,2.6076 a 2.0213,1.9706 0 0 1 0.19503,0.05209 2.0213,1.9706 0 0 0 -0.19503,-0.05209 z m 0.38334,0.12311 A 2.0213,1.9706 0 0 1 7.45742,16.449 2.0213,1.9706 0 0 0 7.27695,16.36013 Z m 0.50926,0.31689 a 2.0213,1.9706 0 0 1 0.14534,0.13696 2.0213,1.9706 0 0 0 -0.14534,-0.13696 z m -4.1544,0.14242 a 5.1701,5.0403 0 0 0 0.44126,0.26262 5.1701,5.0403 0 0 1 -0.44126,-0.26262 z"
       fill="url(#linearGradient1465)"
       id="path21"
       style="fill:url(#linearGradient1465)" />
    <circle
       cx="6.5482998"
       cy="12.628"
       r="3.0404"
       fill="url(#linearGradient1481)"
       opacity="0.8"
       id="circle23"
       style="fill:url(#linearGradient1481)" />
    <circle
       cx="6.5482998"
       cy="12.628"
       r="2.1524999"
       fill="url(#linearGradient1491)"
       opacity="0.8"
       id="circle25"
       style="fill:url(#linearGradient1491)" />
  </g>
</svg>
