<?xml version="1.0" encoding="UTF-8" standalone="no"?>
<!-- Created with Inkscape (http://www.inkscape.org/) -->

<svg
   width="128"
   height="128"
   viewBox="0 0 33.866666 33.866666"
   version="1.1"
   id="svg5"
   xml:space="preserve"
   inkscape:version="1.2.2 (b0a8486541, 2022-12-01)"
   sodipodi:docname="emby.svg"
   xmlns:inkscape="http://www.inkscape.org/namespaces/inkscape"
   xmlns:sodipodi="http://sodipodi.sourceforge.net/DTD/sodipodi-0.dtd"
   xmlns="http://www.w3.org/2000/svg"
   xmlns:svg="http://www.w3.org/2000/svg"><sodipodi:namedview
     id="namedview7"
     pagecolor="#ffffff"
     bordercolor="#000000"
     borderopacity="0.25"
     inkscape:showpageshadow="2"
     inkscape:pageopacity="0.0"
     inkscape:pagecheckerboard="0"
     inkscape:deskcolor="#d1d1d1"
     inkscape:document-units="mm"
     showgrid="false"
     inkscape:zoom="0.84096521"
     inkscape:cx="230.09275"
     inkscape:cy="152.20606"
     inkscape:window-width="1280"
     inkscape:window-height="481"
     inkscape:window-x="328"
     inkscape:window-y="77"
     inkscape:window-maximized="0"
     inkscape:current-layer="layer1" /><defs
     id="defs2" /><g
     inkscape:label="Camada 1"
     inkscape:groupmode="layer"
     id="layer1"><path
       style="fill:#00aa00;stroke-width:0.168611"
       d="M 14.087057,29.673075 10.460739,25.885433 9.5887344,26.784219 8.7167303,27.683004 4.5099813,23.295047 C 2.1962698,20.881669 0.32193733,18.848716 0.34479768,18.777368 0.36765901,18.706021 2.1622092,16.792213 4.3326887,14.524457 L 8.2790147,10.401263 7.4309531,9.4855828 6.5828908,8.5699024 10.497791,4.4788516 c 3.811135,-3.98261763 3.932468,-4.09105093 4.577779,-4.09105093 0.643778,0 0.76744,0.10921084 4.291078,3.78960493 1.995508,2.0842827 3.704198,3.789605 3.79709,3.789605 0.09289,0 0.495039,-0.3512403 0.893668,-0.7805345 0.39863,-0.4292943 0.78569,-0.7587319 0.860134,-0.7320835 0.07444,0.026648 2.017394,2.0011642 4.317662,4.3878124 l 4.182306,4.339359 -3.763862,3.925473 -3.763861,3.925473 0.861131,0.910044 0.861128,0.910046 -4.121459,4.30406 -4.12146,4.304057 h -0.827874 -0.827875 z m 0.661898,-7.149484 c 0.815001,-0.520495 1.533234,-0.946825 1.596072,-0.947402 0.06284,-5.17e-4 0.582733,-0.298764 1.155323,-0.662634 0.572588,-0.36387 1.746641,-1.072079 2.609005,-1.573797 2.986297,-1.737406 3.957062,-2.329766 3.95854,-2.415499 8.11e-4,-0.04737 -0.64814,-0.468015 -1.442127,-0.934766 -1.548383,-0.910226 -2.425456,-1.436544 -4.715857,-2.829907 -0.801207,-0.487414 -1.493406,-0.886206 -1.538223,-0.886206 -0.04482,0 -0.614751,-0.337308 -1.266521,-0.749575 -0.65177,-0.412267 -1.426414,-0.879344 -1.721434,-1.037952 l -0.5364,-0.288376 v 6.636232 c 0,5.254745 0.0437,6.636231 0.209901,6.636231 0.115446,0 0.87672,-0.425857 1.691721,-0.946349 z"
       id="path225" /></g></svg>
