<?xml version="1.0" encoding="UTF-8" standalone="no"?>
<svg
   width="96"
   height="96"
   version="1"
   id="svg20"
   sodipodi:docname="user-trash-full.svg"
   inkscape:version="1.2.2 (b0a8486541, 2022-12-01)"
   xmlns:inkscape="http://www.inkscape.org/namespaces/inkscape"
   xmlns:sodipodi="http://sodipodi.sourceforge.net/DTD/sodipodi-0.dtd"
   xmlns="http://www.w3.org/2000/svg"
   xmlns:svg="http://www.w3.org/2000/svg">
  <defs
     id="defs24" />
  <sodipodi:namedview
     id="namedview22"
     pagecolor="#ffffff"
     bordercolor="#000000"
     borderopacity="0.25"
     inkscape:showpageshadow="2"
     inkscape:pageopacity="0.0"
     inkscape:pagecheckerboard="0"
     inkscape:deskcolor="#d1d1d1"
     showgrid="false"
     inkscape:zoom="6.1577216"
     inkscape:cx="-32.723142"
     inkscape:cy="44.172182"
     inkscape:window-width="1920"
     inkscape:window-height="1003"
     inkscape:window-x="0"
     inkscape:window-y="0"
     inkscape:window-maximized="1"
     inkscape:current-layer="svg20" />
  <g
     id="g262"
     transform="matrix(2.6111111,0,0,2.2926829,-14.666666,-8.1707311)">
    <path
       style="opacity:0.2"
       d="m 11,10 h 26 c 1.108,0 2,0.918314 2,2.059 0,0 3,8.941 3,15.941 0,7 -2,17 -5,17 H 11 C 8,45 6,35 6,28 6,21 9,12.059 9,12.059 9.2109668,10.937993 9.892,10 11,10 Z"
       id="path2" />
    <rect
       style="fill:#9f9f9f"
       width="12"
       height="4"
       x="18"
       y="4"
       id="rect4" />
    <path
       style="fill:#8e8e8e"
       d="m 11,9 h 26 c 1.108,0 2,0.918314 2,2.059 0,0 3,8.941 3,15.941 0,7 -2,17 -5,17 H 11 C 8,44 6,34 6,27 6,20 9,11.059 9,11.059 9.2109668,9.9379926 9.892,9 11,9 Z"
       id="path6" />
    <path
       style="opacity:0.3;fill:none;stroke:#000000;stroke-width:4;stroke-linecap:round"
       d="m 16.0002,21 c 0,0 -1.0002,4 -1.0002,8 0,4 1.0002,8 1.0002,8"
       id="path8" />
    <rect
       style="fill:#9f9f9f"
       width="36"
       height="8"
       x="6"
       y="6"
       rx="2"
       ry="2"
       id="rect10" />
    <path
       style="opacity:0.3;fill:none;stroke:#000000;stroke-width:4;stroke-linecap:round"
       d="M 24,21 V 37"
       id="path12" />
    <path
       style="opacity:0.2;fill:#ffffff"
       d="M 8,6 C 6.892,6 6,6.892 6,8 V 9 C 6,7.892 6.892,7 8,7 h 32 c 1.108,0 2,0.892 2,2 V 8 C 42,6.892 41.108,6 40,6 Z"
       id="path14" />
    <path
       style="opacity:0.2"
       d="m 6,12 v 1 c 0,1.108 0.892,2 2,2 h 32 c 1.108,0 2,-0.892 2,-2 v -1 c 0,1.108 -0.892,2 -2,2 H 8 C 6.892,14 6,13.108 6,12 Z"
       id="path16" />
    <path
       style="opacity:0.3;fill:none;stroke:#000000;stroke-width:4;stroke-linecap:round"
       d="m 32.0002,21 c 0,0 0.9998,4 0.9998,8 0,4 -0.9998,8 -0.9998,8"
       id="path18" />
  </g>
</svg>
